<svg id="Layer_1" data-name="Layer 1" xmlns="http://www.w3.org/2000/svg" viewBox="0 0 1024 1024"><defs><style>.cls-1{fill:#fffaf5;}.cls-2{fill:#330d04;}.cls-3{fill:#fff;}.cls-4{fill:#3a211e;}.cls-5{fill:#976245;}.cls-6{fill:#5e342f;}.cls-7{fill:#512b28;}.cls-8{fill:#7f4b47;}.cls-9{fill:#ad7a50;}</style></defs><title>Coolkies Logo 04</title><rect class="cls-1" width="1024" height="1024"/><rect class="cls-2" y="975.36" width="1024" height="48.64"/><path class="cls-3" d="M318.17,989.4h4.31a13.64,13.64,0,0,1,8.38,2.46,8.13,8.13,0,0,1,3.31,7,8.41,8.41,0,0,1-3.29,7.17,13.66,13.66,0,0,1-8.48,2.49h-4.23Zm2.6,16.93h.91a18.69,18.69,0,0,0,3.82-.37,9,9,0,0,0,3.13-1.24,6.5,6.5,0,0,0,2.14-2.28,6.89,6.89,0,0,0,.8-3.48,7.38,7.38,0,0,0-.78-3.52,5.79,5.79,0,0,0-2.2-2.27,10.72,10.72,0,0,0-3.11-1.21,17,17,0,0,0-3.8-.38h-.91Z" transform="translate(0 0)"/><path class="cls-3" d="M338,1003a4.19,4.19,0,0,0,1.1,2.76,3.62,3.62,0,0,0,2.79,1.17,4,4,0,0,0,2.23-.57,5.89,5.89,0,0,0,1.64-1.74l2.11,1.09a6.53,6.53,0,0,1-2.51,2.38,7.13,7.13,0,0,1-3.49.86,6,6,0,0,1-6.36-6.23,6.6,6.6,0,0,1,1.63-4.61,6,6,0,0,1,4.67-1.78,5.64,5.64,0,0,1,4.51,1.78,6.64,6.64,0,0,1,1.55,4.53v.36Zm7.38-1.73a3.47,3.47,0,0,0-1.15-2.16,3.6,3.6,0,0,0-2.42-.8,3.88,3.88,0,0,0-1.34.22,3.56,3.56,0,0,0-1.11.62,3.49,3.49,0,0,0-.8.95,3.66,3.66,0,0,0-.43,1.17Z" transform="translate(0 0)"/><path class="cls-3" d="M355.18,999.36a1.78,1.78,0,0,0-1.66-1,1.43,1.43,0,0,0-.94.34,1,1,0,0,0-.41.83,1,1,0,0,0,.31.77,3.46,3.46,0,0,0,.87.6l.56.23.63.27a2.52,2.52,0,0,0,.39.15,1.22,1.22,0,0,1,.25.11,7,7,0,0,1,2.18,1.34,2.64,2.64,0,0,1,.8,2,3.58,3.58,0,0,1-1.32,2.81,4.67,4.67,0,0,1-3.13,1.11,5.44,5.44,0,0,1-2.72-.72,4.51,4.51,0,0,1-1.05-.84,3.55,3.55,0,0,1-.7-1.1l2.12-.89a2.69,2.69,0,0,0,2.35,1.53,2,2,0,0,0,1.08-.3,1.83,1.83,0,0,0,.73-.73,1.28,1.28,0,0,0,.1-1,1.77,1.77,0,0,0-.86-1l-2.43-1.19a9.86,9.86,0,0,1-1.1-.61,3.71,3.71,0,0,1-.78-.64,2.63,2.63,0,0,1-.46-.77,3.28,3.28,0,0,1,1-3.4,3.85,3.85,0,0,1,2.71-1,3.73,3.73,0,0,1,3.54,2.08Z" transform="translate(0 0)"/><path class="cls-3" d="M364.1,991.22a1.41,1.41,0,0,1-.49,1.09,1.73,1.73,0,0,1-1.22.46,1.69,1.69,0,0,1-1.21-.46,1.42,1.42,0,0,1-.5-1.09,1.5,1.5,0,0,1,.5-1.12,1.66,1.66,0,0,1,1.21-.47,1.7,1.7,0,0,1,1.22.47A1.49,1.49,0,0,1,364.1,991.22Zm-.47,17.29h-2.48V996.64h2.48Z" transform="translate(0 0)"/><path class="cls-3" d="M379.72,1008.28a8.57,8.57,0,0,1-1.38,5.2q-1.38,1.82-4.92,1.82a6.81,6.81,0,0,1-4.48-1.44,5.07,5.07,0,0,1-1.77-3.93h2.49a3,3,0,0,0,1.06,2.47,4.33,4.33,0,0,0,2.81.87,3.32,3.32,0,0,0,2.92-1.14,5.58,5.58,0,0,0,.78-3.22v-2.25h-.05a5.56,5.56,0,0,1-1.92,1.66,5.39,5.39,0,0,1-2.47.59,5.77,5.77,0,0,1-4.54-1.85,6.55,6.55,0,0,1-1.66-4.56,6.15,6.15,0,0,1,1.69-4.36,5.67,5.67,0,0,1,4.39-1.85,5.23,5.23,0,0,1,4.51,2.39h.05v-2h2.49Zm-6.55-1.39a3.9,3.9,0,0,0,3.07-1.25,4.42,4.42,0,0,0,1.14-3.06,4.32,4.32,0,0,0-1.14-3,3.89,3.89,0,0,0-3.07-1.24,3.79,3.79,0,0,0-3,1.27,4.33,4.33,0,0,0-1.11,3,4.42,4.42,0,0,0,1.11,3A3.82,3.82,0,0,0,373.17,1006.89Z" transform="translate(0 0)"/><path class="cls-3" d="M385.44,998.24h.06a3.68,3.68,0,0,1,1.6-1.44,5.2,5.2,0,0,1,2.3-.51,5.94,5.94,0,0,1,2.15.35,3.51,3.51,0,0,1,1.42,1,4.1,4.1,0,0,1,.78,1.61,9.44,9.44,0,0,1,.23,2.17v7.07H391.5v-6.79a4.6,4.6,0,0,0-.56-2.56,2.56,2.56,0,0,0-2.29-.84,4.66,4.66,0,0,0-1.08.11,2.84,2.84,0,0,0-.77.33,2.27,2.27,0,0,0-.56.5,5.88,5.88,0,0,0-.41.61,1.82,1.82,0,0,0-.15.45c-.05.19-.09.38-.13.57s-.06.39-.08.59,0,.35,0,.46v6.57H383V996.64h2.48Z" transform="translate(0 0)"/><path class="cls-3" d="M405.2,986.51h2.49v12.11h.06a5.33,5.33,0,0,1,4.5-2.33,5.68,5.68,0,0,1,4.4,1.85,6.19,6.19,0,0,1,1.68,4.36,6.59,6.59,0,0,1-1.65,4.56,5.77,5.77,0,0,1-4.54,1.85,5.36,5.36,0,0,1-4.39-2.25h-.06v1.85H405.2Zm6.44,20.38a3.87,3.87,0,0,0,3.07-1.25,4.42,4.42,0,0,0,1.14-3.06,4.32,4.32,0,0,0-1.14-3,3.87,3.87,0,0,0-3.07-1.24,3.8,3.8,0,0,0-3,1.27,4.33,4.33,0,0,0-1.11,3,4.42,4.42,0,0,0,1.11,3A3.83,3.83,0,0,0,411.64,1006.89Z" transform="translate(0 0)"/><path class="cls-3" d="M418.69,996.64h2.91l4.36,7.53,4.06-7.53h2.8l-10.48,18.66h-2.82l5.09-8.82Z" transform="translate(0 0)"/><path class="cls-3" d="M445.36,1003.72l-2.37,4.79H440.2l9.95-19.92,10,19.92h-2.79l-2.38-4.79Zm4.79-9.91-3.71,7.73h7.41Z" transform="translate(0 0)"/><path class="cls-3" d="M464.16,1008.51h-2.49v-22h2.49Z" transform="translate(0 0)"/><path class="cls-3" d="M470.29,1008.51h-2.48v-22h2.48Z" transform="translate(0 0)"/><path class="cls-3" d="M479.75,999.43v1.91H473.7v-1.91Z" transform="translate(0 0)"/><path class="cls-3" d="M489.42,988.82a4.9,4.9,0,0,0-1.66-.48,1.37,1.37,0,0,0-1.16.46,2.79,2.79,0,0,0-.5,1.16c-.05.33-.08.6-.09.79s0,.47,0,.81v5.08h3.43v2.13H486v9.74h-2.48v-9.74h-1.14v-2.13h1.14v-5.77q0-4.67,4.17-4.67a5.06,5.06,0,0,1,1.74.31Z" transform="translate(0 0)"/><path class="cls-3" d="M493.26,998.57h.08a3.87,3.87,0,0,1,1.39-1.67,3.8,3.8,0,0,1,2.15-.61,4.1,4.1,0,0,1,2.05.58L497.8,999a2.41,2.41,0,0,0-1.52-.49,2.51,2.51,0,0,0-2.55,1.42,5.42,5.42,0,0,0-.37,1.3,9.53,9.53,0,0,0-.1,1.49v5.83h-2.48V996.64h2.48Z" transform="translate(0 0)"/><path class="cls-3" d="M501.8,1003a4.25,4.25,0,0,0,1.11,2.76,3.62,3.62,0,0,0,2.79,1.17,4,4,0,0,0,2.23-.57,6,6,0,0,0,1.64-1.74l2.1,1.09a6.43,6.43,0,0,1-2.5,2.38,7.17,7.17,0,0,1-3.5.86,6,6,0,0,1-6.35-6.23,6.6,6.6,0,0,1,1.63-4.61,6,6,0,0,1,4.67-1.78,5.6,5.6,0,0,1,4.5,1.78,6.64,6.64,0,0,1,1.55,4.53v.36Zm7.39-1.73a3.36,3.36,0,0,0-3.57-3,3.88,3.88,0,0,0-1.34.22,3.45,3.45,0,0,0-1.11.62,3.49,3.49,0,0,0-.8.95,3.43,3.43,0,0,0-.43,1.17Z" transform="translate(0 0)"/><path class="cls-3" d="M515.29,1003a4.25,4.25,0,0,0,1.11,2.76,3.59,3.59,0,0,0,2.78,1.17,4,4,0,0,0,2.23-.57,5.89,5.89,0,0,0,1.64-1.74l2.11,1.09a6.57,6.57,0,0,1-2.5,2.38,7.2,7.2,0,0,1-3.5.86,6,6,0,0,1-6.36-6.23,6.64,6.64,0,0,1,1.63-4.61,6,6,0,0,1,4.67-1.78,5.64,5.64,0,0,1,4.51,1.78,6.64,6.64,0,0,1,1.55,4.53v.36Zm7.38-1.73a3.47,3.47,0,0,0-1.15-2.16,3.58,3.58,0,0,0-2.42-.8,3.92,3.92,0,0,0-1.34.22,3.4,3.4,0,0,0-1.1.62,3.32,3.32,0,0,0-.8.95,3.24,3.24,0,0,0-.43,1.17Z" transform="translate(0 0)"/><path class="cls-3" d="M533.2,999.43v1.91h-6.05v-1.91Z" transform="translate(0 0)"/><path class="cls-3" d="M546.11,1006.66h-.06a5.56,5.56,0,0,1-1.92,1.66,5.36,5.36,0,0,1-2.47.59,5.77,5.77,0,0,1-4.54-1.85,6.59,6.59,0,0,1-1.65-4.56,6.19,6.19,0,0,1,1.68-4.36,5.67,5.67,0,0,1,4.39-1.85,5.34,5.34,0,0,1,4.51,2.33h.06V986.51h2.49v22h-2.49Zm-4.07.23a3.89,3.89,0,0,0,3.07-1.25,4.41,4.41,0,0,0,1.13-3.06,4.31,4.31,0,0,0-1.13-3,3.88,3.88,0,0,0-3.07-1.24,3.79,3.79,0,0,0-3,1.27,4.32,4.32,0,0,0-1.1,3,4.41,4.41,0,0,0,1.1,3A3.82,3.82,0,0,0,542,1006.89Z" transform="translate(0 0)"/><path class="cls-3" d="M552.66,998.12a7,7,0,0,1,4.92-1.83,7,7,0,0,1,4.89,1.83,6,6,0,0,1,0,9,7,7,0,0,1-4.89,1.82,7,7,0,0,1-4.92-1.82,6,6,0,0,1,0-9Zm.49,4.48a4,4,0,0,0,1.3,2.92,4.36,4.36,0,0,0,3.13,1.21,4.42,4.42,0,0,0,3.12-1.21,4,4,0,0,0,1.29-2.92,3.88,3.88,0,0,0-1.29-2.91,4.42,4.42,0,0,0-3.12-1.22,4.36,4.36,0,0,0-3.13,1.22A3.9,3.9,0,0,0,553.15,1002.6Z" transform="translate(0 0)"/><path class="cls-3" d="M571.17,1004.2,575,996l3.79,8.21,3.75-7.56h2.82l-6.57,12.27L575,1001l-3.82,7.93-6.57-12.27h2.81Z" transform="translate(0 0)"/><path class="cls-3" d="M589.08,998.24h.06a3.65,3.65,0,0,1,1.61-1.44,5.16,5.16,0,0,1,2.29-.51,6,6,0,0,1,2.16.35,3.55,3.55,0,0,1,1.41,1,4,4,0,0,1,.78,1.61,8.92,8.92,0,0,1,.23,2.17v7.07h-2.49v-6.79a4.61,4.61,0,0,0-.55-2.56,2.56,2.56,0,0,0-2.29-.84,4.73,4.73,0,0,0-1.08.11,2.84,2.84,0,0,0-.77.33,2.47,2.47,0,0,0-.56.5,5.88,5.88,0,0,0-.41.61,3.36,3.36,0,0,0-.15.45,5.78,5.78,0,0,0-.12.57c0,.2-.07.39-.09.59s0,.35,0,.46v6.57H586.6V996.64h2.48Z" transform="translate(0 0)"/><path class="cls-3" d="M603.65,1008.51h-2.49v-22h2.49Z" transform="translate(0 0)"/><path class="cls-3" d="M608,998.12a7,7,0,0,1,4.92-1.83,7,7,0,0,1,4.89,1.83,6,6,0,0,1,0,9,7,7,0,0,1-4.89,1.82,7,7,0,0,1-4.92-1.82,6,6,0,0,1,0-9Zm.5,4.48a4,4,0,0,0,1.29,2.92,4.64,4.64,0,0,0,6.25,0,4,4,0,0,0,1.3-2.92,3.93,3.93,0,0,0-1.3-2.91,4.61,4.61,0,0,0-6.25,0A3.92,3.92,0,0,0,608.52,1002.6Z" transform="translate(0 0)"/><path class="cls-3" d="M634.25,1008.51h-2.49v-1.85h0a5.22,5.22,0,0,1-4.4,2.25,5.83,5.83,0,0,1-4.54-1.85,6.59,6.59,0,0,1-1.65-4.56,6.19,6.19,0,0,1,1.68-4.36,5.73,5.73,0,0,1,4.43-1.85,5.34,5.34,0,0,1,4.48,2.33h0v-2h2.49Zm-6.55-1.62a3.88,3.88,0,0,0,3.06-1.25,4.42,4.42,0,0,0,1.14-3.06,4.32,4.32,0,0,0-1.14-3,3.87,3.87,0,0,0-3.06-1.24,3.79,3.79,0,0,0-3,1.27,4.32,4.32,0,0,0-1.1,3,4.41,4.41,0,0,0,1.1,3A3.82,3.82,0,0,0,627.7,1006.89Z" transform="translate(0 0)"/><path class="cls-3" d="M647.12,1006.66h0a5.47,5.47,0,0,1-1.92,1.66,5.36,5.36,0,0,1-2.47.59,5.74,5.74,0,0,1-4.53-1.85,6.56,6.56,0,0,1-1.67-4.56,6.12,6.12,0,0,1,1.7-4.36,5.65,5.65,0,0,1,4.38-1.85,5.34,5.34,0,0,1,4.51,2.33h0V986.51h2.49v22h-2.49Zm-4,.23a3.89,3.89,0,0,0,3.06-1.25,4.41,4.41,0,0,0,1.13-3.06,4.31,4.31,0,0,0-1.13-3,3.89,3.89,0,0,0-3.06-1.24,3.79,3.79,0,0,0-3,1.27,4.33,4.33,0,0,0-1.11,3,4.42,4.42,0,0,0,1.11,3A3.82,3.82,0,0,0,643.07,1006.89Z" transform="translate(0 0)"/><path class="cls-3" d="M656.75,1007.44a1.36,1.36,0,0,1-.47,1,1.64,1.64,0,0,1-1.14.43,1.6,1.6,0,0,1-1.13-.43,1.36,1.36,0,0,1,0-2.06,1.57,1.57,0,0,1,1.13-.45,1.61,1.61,0,0,1,1.14.45A1.36,1.36,0,0,1,656.75,1007.44Z" transform="translate(0 0)"/><path class="cls-3" d="M670.35,1000a5,5,0,0,0-3.71-1.6,4.27,4.27,0,0,0-3.07,1.24,4.05,4.05,0,0,0-1.24,2.92,3.92,3.92,0,0,0,1.24,3,4.61,4.61,0,0,0,3.24,1.2,4.85,4.85,0,0,0,3.54-1.58v2.92a8.09,8.09,0,0,1-3.57.78,7.13,7.13,0,0,1-4.92-1.8,5.64,5.64,0,0,1-2-4.43,5.87,5.87,0,0,1,2-4.56,7.24,7.24,0,0,1,5.06-1.83,7.12,7.12,0,0,1,3.43.79Z" transform="translate(0 0)"/><path class="cls-3" d="M673.86,998.12a7,7,0,0,1,4.91-1.83,6.93,6.93,0,0,1,4.89,1.83,6,6,0,0,1,0,9,6.93,6.93,0,0,1-4.89,1.82,7,7,0,0,1-4.91-1.82,6,6,0,0,1,0-9Zm.49,4.48a4,4,0,0,0,1.3,2.92,4.35,4.35,0,0,0,3.12,1.21,4.42,4.42,0,0,0,3.13-1.21,4,4,0,0,0,1.3-2.92,3.93,3.93,0,0,0-1.3-2.91,4.43,4.43,0,0,0-3.13-1.22,4.36,4.36,0,0,0-3.12,1.22A3.9,3.9,0,0,0,674.35,1002.6Z" transform="translate(0 0)"/><path class="cls-3" d="M690.35,998.14h.06a4.33,4.33,0,0,1,1.48-1.33,3.9,3.9,0,0,1,1.94-.52,4.19,4.19,0,0,1,3.74,2.11,4.36,4.36,0,0,1,1.67-1.54,4.82,4.82,0,0,1,2.31-.57c2.86,0,4.28,1.71,4.28,5.12v7.1h-2.49v-6.72c0-.3,0-.6,0-.9a5,5,0,0,0-.15-.86,2.53,2.53,0,0,0-.33-.77,2.3,2.3,0,0,0-.61-.64,2.44,2.44,0,0,0-1.27-.3,2.75,2.75,0,0,0-1.33.3,2.24,2.24,0,0,0-.81.7,3.65,3.65,0,0,0-.46,1,8.79,8.79,0,0,0-.21,1.14c0,.34,0,.73,0,1.17v5.83h-2.48v-6.29c0-.4,0-.74,0-1a8.87,8.87,0,0,0-.16-1,2.68,2.68,0,0,0-.37-1,2,2,0,0,0-.69-.63,2.13,2.13,0,0,0-1.13-.28,2.33,2.33,0,0,0-2.46,1.52,6.22,6.22,0,0,0-.33,1.34,11,11,0,0,0-.09,1.5v5.83h-2.48V996.64h2.48Z" transform="translate(0 0)"/><rect class="cls-3" x="260.19" y="999.96" width="35.21" height="1.58"/><rect class="cls-3" x="728.61" y="999.96" width="35.2" height="1.58"/><path class="cls-4" d="M296.27,555.43a12.26,12.26,0,0,1,6.35,6.27,11.85,11.85,0,0,1,.6,8.61,8.85,8.85,0,0,1-7,6.56c-1.57.3-5.18.35-10.85.09-6.92-.33-11.7.4-14.3,2.28-4.25,3-7.52,9.2-9.05,13.75-1.6,4.78-2.45,13.21-.08,17,2,3.26,6.43,5.75,10,6.87,3.92,1.22,8.63,1.23,14.07,0a11.94,11.94,0,0,1,5.09.27A8.54,8.54,0,0,1,297,628.56q-2.68,7.19-6.62,9.87c-2.62,1.78-7.29,2.94-14,3.36a35.89,35.89,0,0,1-13.11-1.51A51.78,51.78,0,0,1,250.4,634,84.3,84.3,0,0,1,239,625a33.51,33.51,0,0,1-6.32-10.38c-2.28-5.46-1.66-11.78-1.09-17.36a69.32,69.32,0,0,1,4.29-16.94c1.81-4.74,3.74-8.33,5.8-10.69,8.05-6.74,16.73-12.65,27.05-15.28a39.36,39.36,0,0,1,16.25-1.48A47.46,47.46,0,0,1,296.27,555.43Z" transform="translate(0 0)"/><path class="cls-4" d="M340.51,581c8.87.62,21.46,6.66,28.4,15.77,6.67,8.76,8.57,21.63,7.89,31.08-.47,6.49-2.22,14.87-5.81,21.09-3.14,5.46-9.9,10.37-15.06,11.41-6.45,1.31-16,.46-23.47-1.41-6.88-1.72-14.38-4.08-18.43-8.08-3.18-3.13-6.24-9.76-7.49-15.43-1.09-4.94-.37-11.35,1-16.09A101.57,101.57,0,0,1,311.09,609c3.69-6,7.27-12.08,11.81-17.47S334.79,580.54,340.51,581Zm-9.34,40.52c-1.35,4.73,1.42,8,8.44,9.5,7.3,1.6,12.15-2.89,13.51-9.82.54-2.77-.61-5.4-3.5-7.66a18.76,18.76,0,0,0-8.52-3.74c-1.56-.26-3.56,1.3-6,4.65A24.24,24.24,0,0,0,331.17,621.47Z" transform="translate(0 0)"/><path class="cls-4" d="M415.52,594.49c8.85-.28,22,4.45,29.74,12.8,7.5,8,10.69,20.64,11,30.11.19,6.51-.7,15-3.63,21.57-2.56,5.75-8.76,11.32-13.77,12.89-6.26,1.95-15.83,2.09-23.41,1-7-1-14.66-2.59-19.07-6.15-3.47-2.8-7.17-9.07-9-14.58-1.58-4.81-1.51-11.25-.65-16.1a102.19,102.19,0,0,1,2.49-10.63c3.05-6.31,6-12.77,9.93-18.59S409.81,594.68,415.52,594.49Zm-5.16,41.27c-.87,4.84,2.21,7.77,9.32,8.59,7.41.85,11.75-4.15,12.39-11.15.26-2.82-1.15-5.32-4.23-7.27a18.65,18.65,0,0,0-8.83-2.84c-1.57-.11-3.39,1.65-5.49,5.24A24.15,24.15,0,0,0,410.36,635.76Z" transform="translate(0 0)"/><path class="cls-4" d="M471.72,593.93c1-3.74,6.28-6,13.59-5.71,7.05.24,11.39,2.16,13,5.9a28.33,28.33,0,0,1,1.06,9,98.73,98.73,0,0,1-2.55,18.12c-1.25,5.91-2.49,12-2.66,18a13,13,0,0,0,.45,4.29c-.12,1.23-.17,2.24-.2,3-.27,6.59,7,8.48,12.12,8.29s8.3,3.42,8.33,9.78c0,5-1.93,8.33-5.72,10.1a42.16,42.16,0,0,1-17.06,3.59c-7.83-.13-16.23-3.86-20.72-10-6.23-8.57-4.71-23-4.24-33.29C467.8,621.31,468.48,605.43,471.72,593.93Z" transform="translate(0 0)"/><path class="cls-4" d="M523.54,591.48c.41-2.86,3.86-4.33,10.37-4.53,8.24-.26,12.46,1.9,13.18,6a51.34,51.34,0,0,1,.69,6.39l.25,5c0,.65,0,1.69,0,3,0,1,.08,1.73.1,2.14.41,8.14,2,13.19,4.15,13.81,2.65.75,5.7-1.51,7.55-5.84.87-2.06,2.33-6.62,4.84-12.4,2-4.53,5.2-7.13,8.73-7.43A16.82,16.82,0,0,1,584,600.47c3.52,2.21,5.48,5,5.83,8.29a10.48,10.48,0,0,1-.2,3c-2,9.83-9.82,17.82-18.14,22.89a39.84,39.84,0,0,1,15.83,10.41c3.79,4.15,7.56,10.6,8.77,16.26.7,3.28-.6,6.24-4,8.71a20.34,20.34,0,0,1-10.44,3.73c-3.71.32-7.3-.15-9.29-1.64-1.71-1.28-3.7-4.64-5.83-8.72a72.25,72.25,0,0,0-5.41-9.32c-2.22-2.8-4.67-4.13-7.37-4a9.35,9.35,0,0,0-2.28.42c-2.06,1.25-3,3.5-2.86,6.75s1.42,7.59,3.89,13.47c-.93,4.41-5.09,6.82-12.44,7.09a19.56,19.56,0,0,1-10.47-2.21,9.48,9.48,0,0,1-5.15-7.91c-1-14.57-2.11-29.38-2.3-43.94C522,613.09,522.1,602.19,523.54,591.48Z" transform="translate(0 0)"/><path class="cls-4" d="M597.18,595.7c-.46-9.06,6-14.44,14.64-15.37,3.88-.41,6.92,0,9,1.29s3.9,3.78,5.39,7.34a15.48,15.48,0,0,1,1.11,3.79,12.48,12.48,0,0,1-3,11,18,18,0,0,1-11.21,5.4,13.25,13.25,0,0,1-11-3.27A14,14,0,0,1,597.18,595.7ZM603,620c1.17-2.9,5-4.79,11.21-5.63,6.68-.9,11.59,0,13.48,2.75,4.23,6.06,4.78,16.57,6,24.27s3.4,17,1.85,24.09c-.59,2.73-5.25,5-13.12,6-7.22,1-11.62.25-13.16-2.07-4.57-7.81-5.29-18.14-6.29-26.78C602.1,635.63,600.26,626.76,603,620Z" transform="translate(0 0)"/><path class="cls-4" d="M672.07,583.11c3.3-.89,5.1-1.52,5.27-1.56,14.19-3.22,25.46,5.9,27.56,19a18.81,18.81,0,0,1-14.61,21.11,55.09,55.09,0,0,1-8.63.87,53.39,53.39,0,0,0-8.35.71,2.8,2.8,0,0,0-1.26.51,4,4,0,0,0-1.56,4.07A5.61,5.61,0,0,0,673,631.3a8.46,8.46,0,0,0,4.51,1.52c7.44.2,12,0,13.52-.32a22.84,22.84,0,0,0,10.63-5.87,13.89,13.89,0,0,1,4.57-2.15,9.14,9.14,0,0,1,7.15.78,7.38,7.38,0,0,1,3.6,5.59c.71,4.75.49,8.59-1,11.32s-4.89,6-10.38,9.68a35.94,35.94,0,0,1-12,5.16,52.58,52.58,0,0,1-14.17,1.15,80.4,80.4,0,0,1-14.26-1.87,34.52,34.52,0,0,1-10.5-5.33c-7.38-5-11.08-14-12.54-22.45a42.43,42.43,0,0,1-.29-9.26c.58-13.35,5.56-27.11,18.61-32.79C665.14,585,669.11,583.92,672.07,583.11Zm-2.57,20.45a4,4,0,0,0,2.81,3,8.67,8.67,0,0,0,4.87.29,8.47,8.47,0,0,0,4.17-2.28,4,4,0,0,0,1.29-3.9,4,4,0,0,0-2.86-3,8.58,8.58,0,0,0-4.7-.3,8.77,8.77,0,0,0-4.25,2.27A4.05,4.05,0,0,0,669.5,603.56Z" transform="translate(0 0)"/><path class="cls-4" d="M777,564.86a4.27,4.27,0,0,1,1.88,2.23c.82,2.18.4,4.7-1.29,7.57a12.23,12.23,0,0,1-6.24,5.62,6.2,6.2,0,0,1-2.92.32c-5.29-.5-9.61-.21-13,.94a10.52,10.52,0,0,0-4.73,2.92,4.27,4.27,0,0,0-.85,4.85c2.95,5.12,14.76,3.4,20.08,2.9,6.55-.62,11.8-.41,15.41,1.08,4.16,1.72,7.27,5.35,9.33,10.67,3.62,9.35-.75,19-8.83,24.47A66.07,66.07,0,0,1,766,638.08a86.64,86.64,0,0,1-20.15,3.65c-6.34.37-13.44-.73-19-4.35q-1.75-6.37-1.62-9c.25-4.76,2.59-7.76,7-9,2-.58,5.52-.51,10.59.15s8.7.62,10.84-.06a9.35,9.35,0,0,0,5-3.73,4.16,4.16,0,0,0-.15-1.56c-.79-2.44-5.86-3-14.36-1.23-4.84,1-11.75.24-16.13-2.23s-7.28-5.86-8.46-10.26c-2.17-8.14.63-17.16,6.23-23.3,6.19-6.78,12.82-11.69,21.14-14.54,5.27-1.8,11.56-3.37,17.57-2.52C767.49,560.51,771.62,562.13,777,564.86Z" transform="translate(0 0)"/><path class="cls-5" d="M452.06,330.46l-.1.06-.19.1-.16.09.18-.09A1.27,1.27,0,0,0,452.06,330.46Z" transform="translate(0 0)"/><path class="cls-6" d="M460.91,337.21c-.06.26-.12.53-.2.78a3.76,3.76,0,0,1-.29.68,2.49,2.49,0,0,1-.35.62l-.18.3c-.08.12-.24.3-.35.45l-.74.94A19.52,19.52,0,0,0,456,345.5a15.08,15.08,0,0,0-1.06,5.45c-.07,1.68,0,3.26.08,4.8l.07,1.16,0,.92a3.6,3.6,0,0,1-.06.83,2.73,2.73,0,0,1-.13.71,2.15,2.15,0,0,1-1.42,1.57,8.9,8.9,0,0,1-3.5.33,53.19,53.19,0,0,1-8.56-1.59,32.75,32.75,0,0,0-9.77-.57c-3.12.22-6.08.64-8.65.31a8.89,8.89,0,0,1-3.52-1.13,4.57,4.57,0,0,1-2.05-2.28,14.26,14.26,0,0,1-.11-7.7,29.9,29.9,0,0,1,2.92-8,25.83,25.83,0,0,1,2.2-3.54,9,9,0,0,1,.67-.81,12.36,12.36,0,0,1,2.05-1.8,10.6,10.6,0,0,1,3.19-1.5,14.87,14.87,0,0,1,4-.58,29.19,29.19,0,0,1,4.13.2l2.13.32a25.71,25.71,0,0,0,2.67.24,22.18,22.18,0,0,0,5.44-.49,23.69,23.69,0,0,0,2.67-.76,12.32,12.32,0,0,0,1.34-.52l.66-.29a4.49,4.49,0,0,0,1.1-.06,4.78,4.78,0,0,1,.79-.07l.91,0c.62,0,1.15.1,1.74.11s1,.23,1.53.37a6.45,6.45,0,0,1,2.33,1.45,5.52,5.52,0,0,1,1.11,2.45A6.14,6.14,0,0,1,460.91,337.21Z" transform="translate(0 0)"/><path class="cls-6" d="M463.84,452.87a8.16,8.16,0,0,1-.12,1.31,19.65,19.65,0,0,1-.84,3c-.41,1-.88,2.08-1.4,3.1a37.34,37.34,0,0,1-8.61,10.91,19.52,19.52,0,0,1-5.64,3.47,15.57,15.57,0,0,1-6.3.79,8.75,8.75,0,0,1-5.29-2,4.11,4.11,0,0,1-1-4.25,14.07,14.07,0,0,1,3-5.33l0,0a68.92,68.92,0,0,1,4.77-5.3l1-1c1.4-1.36,2.86-2.66,4.33-4,1.83-1.63,3.71-3.22,5.65-4.73,1-.76,1.93-1.54,2.91-2.28s2-1.5,3-2.2c.56-.4,1.13-.79,1.69-1.2.34.72.65,1.45.93,2.2a31.87,31.87,0,0,1,1.15,3.37,25.73,25.73,0,0,1,.66,3l.06.36,0,.2A2.17,2.17,0,0,1,463.84,452.87Z" transform="translate(0 0)"/><path class="cls-5" d="M571.54,522.73c-.46-.83-1.12-1.91-1.67-3.08a25.1,25.1,0,0,1-1.41-3.6,37.76,37.76,0,0,1-1.21-5.58c-.07-.52-.13-1-.19-1.54-.27-2.31-.34-4.62-.41-6.8a43.78,43.78,0,0,0-1.8-11.47,73.3,73.3,0,0,0-3.57-9.14c.62,5-.22,10.65-.48,16-.46,10.19,5.91,17.66,0,21.06s-11.07-12.23-11.52-21.06-2.27-11.54-4.56-19,9.44-7.86,9.44-7.86a13.3,13.3,0,0,1,3.3,2.37,54.45,54.45,0,0,1-2.13-6.24c-1.17-4.28-1.88-8.62-3.39-11.08a12,12,0,0,0-3.27-3.46,39.84,39.84,0,0,0-4.88-3l-5.76-3a32.8,32.8,0,0,1-6-4.2,19.13,19.13,0,0,1-4.83-6.49,23.67,23.67,0,0,1-1.82-7.53c-.21-2.36-.23-4.55-.3-6.68s-.12-4.21-.29-6.11a25.5,25.5,0,0,0-3.07-10.5A13.45,13.45,0,0,0,518.5,401a6.44,6.44,0,0,0-1.56-1,11.05,11.05,0,0,0-2.2-.34c-1-.07-2.17-.13-3.51-.34a12.65,12.65,0,0,1-4.42-1.5,10,10,0,0,1-3.63-3.71c-.18-.32-.42-.74-.54-1l-.33-.7-.66-1.36a19.31,19.31,0,0,0-1.34-2.32,9.27,9.27,0,0,0-1.52-1.75,17.82,17.82,0,0,0-2.12-1.67l-1.23-.86c-.42-.27-.87-.58-1.2-.76a12,12,0,0,0-2.27-1.1l-1.49-.55c-.26-.1-.68-.28-1-.44l-.3-.15c-.86.79-1.7,1.6-2.5,2.42-1.74,1.78-3.48,3.57-5,5.5a63.19,63.19,0,0,0-8.25,12.35,36.63,36.63,0,0,0-1.49,3.39l-.69,1.73c-.22.57-.37,1.17-.56,1.76l-.56,1.78-.53,1.93c-.32,1.29-.77,2.57-1.2,3.85a30.16,30.16,0,0,1-3.71,7.2,10.83,10.83,0,0,1-3,2.81,4.71,4.71,0,0,1-3.89.65,4.48,4.48,0,0,0,3.41-1.32,10,10,0,0,0,2.14-3,27.64,27.64,0,0,0,2.24-7.16c.23-1.24.47-2.47.61-3.74l.24-1.88.3-2c.11-.68.19-1.36.34-2l.48-2a40.4,40.4,0,0,1,1.21-3.92,60.79,60.79,0,0,1,7.44-14.5,75.84,75.84,0,0,1,4.9-6.51c1.4-1.67,2.8-3.22,4.4-4.79a26.14,26.14,0,0,1,.23-2.84l.9-6.35c.27-2.06.42-4,.69-6.34.14-1.13.33-2.29.4-3.07a22.56,22.56,0,0,0,.05-2.78,34.71,34.71,0,0,1,.1-3.63c.12-1.24.31-2.42.53-3.56.46-2.27,1.06-4.45,1.64-6.51a14.93,14.93,0,0,0,.88-4.94,9.09,9.09,0,0,0-1.8-4.09,51.77,51.77,0,0,0-3.77-4.62c-5.63-6.27-11.55-12.66-17-19.46-2.74-3.4-5.34-6.94-7.78-10.66a55.88,55.88,0,0,1-6.18-12.23c-.19-.57-.42-1.11-.57-1.71l-.41-1.83-.35-1.74-.27-1.35-.13-.68-.19-.61-.39-1.21a9.88,9.88,0,0,0-1.11-1.94c-1.7-2.1-3.85-2.66-7.61-1.3l-1.93.25c-.46.06-.94.15-1.4.24a26.08,26.08,0,0,0-2.74.65,14.25,14.25,0,0,0-4.5,2,4.57,4.57,0,0,0-1.13,1.12c-.05.08-.05.17-.09.23a1.68,1.68,0,0,0-.19.42c-.19.55-.38,1.09-.63,1.69-.11.27-.25.6-.4.92s-.32.65-.52,1a9.57,9.57,0,0,1-1.83,2.32,8.27,8.27,0,0,1-1.4,1l-.71.37-.64.24a12.44,12.44,0,0,1-2.16.6c-2.42.46-4.29.73-6.33,1.16a24.27,24.27,0,0,0-4.94,1.84,53,53,0,0,0-9.78,6.55,55.86,55.86,0,0,0-8.3,8.48L392,304l-1.53,2.43c-.42.83-.92,1.65-1.29,2.48l-1.2,2.74a43.2,43.2,0,0,1-7.85,11.93c-3,3.35-5.82,6.31-8.19,9.44a38.46,38.46,0,0,0-5.62,10,44,44,0,0,0-1.66,5.52l-.35,1.42-.31,1.55-.62,3.11q-.6,3.11-1.14,6.2c-.17,1.06-.34,2-.57,3.29a32.4,32.4,0,0,1-1,3.67l-4.22,12.18c-.38,1-.63,1.93-.91,2.87s-.61,1.85-.79,2.84c-.42,1.94-.88,3.87-1.14,5.88a101.75,101.75,0,0,0-1.14,12.16A131.06,131.06,0,0,0,354,428.26a70.9,70.9,0,0,0,2.83,11.57,20.5,20.5,0,0,0,1,2.53l.55,1.16a9.61,9.61,0,0,0,.57.85,22.91,22.91,0,0,0,1.82,2.37l.27.36a27.6,27.6,0,0,1,7.52-10,22.8,22.8,0,0,1,2.71-2l2.23-1.49a14.6,14.6,0,0,0,1.77-1.41,21.26,21.26,0,0,0,1.53-1.63,17.31,17.31,0,0,0,2.31-3.91,33.28,33.28,0,0,0,1.58-4.88c.48-1.79.9-3.67,1.57-5.71a23.36,23.36,0,0,1,2.82-6.11,12.18,12.18,0,0,1,1.09-1.42l.58-.7c.18-.21.33-.35.5-.53l2-2.08c1.34-1.37,2.7-2.74,4.15-4.07s3-2.61,4.53-3.84a44.12,44.12,0,0,1,5-3.33,24.1,24.1,0,0,1,5.67-2.24,13.73,13.73,0,0,1,6-.21,21.39,21.39,0,0,0-9.45,5.54,78.39,78.39,0,0,0-7.42,8.17l-3.54,4.37-1.82,2.22c-.14.19-.33.39-.44.54l-.29.45a6.2,6.2,0,0,0-.58.89c-1.44,2.5-1.88,6-2.68,9.84a44,44,0,0,1-1.65,6.08,24.13,24.13,0,0,1-3.23,6.06,26.22,26.22,0,0,1-2.31,2.62,22.66,22.66,0,0,1-2.61,2.23l-2.48,1.77a19,19,0,0,0-1.89,1.42,20.17,20.17,0,0,0-5.5,7.51,24.67,24.67,0,0,0-1.47,4.6c-.15.65-.26,1.33-.35,2q.88,2.44,1.65,4.73c1.36,4.06,2.73,8,4.23,11.93l1.13,2.93,1.15,2.81c.83,1.85,1.64,3.71,2.59,5.49a79.86,79.86,0,0,0,6.24,10.39,84.9,84.9,0,0,0,7.62,9.47,102.61,102.61,0,0,0,8.8,8.51,147.87,147.87,0,0,0,20.13,14.44,131,131,0,0,0,22.31,10.58,141,141,0,0,0,23.89,6.51c2,.39,4.06.63,6.08.94s4.08.47,6.1.56a71.29,71.29,0,0,0,12-.18l2.87-.38,2.74-.61,6.21-1.67q6.25-1.65,12.55-3.14c8.37-2,16.75-3.87,25.14-5.67l12.55-2.63a73,73,0,0,0,11.55-3.37,31.6,31.6,0,0,0,5-2.46,14.06,14.06,0,0,0,2-1.4,8.2,8.2,0,0,0,.66-.65c.08-.09.11-.18.18-.26l.09-.11A7.16,7.16,0,0,0,571.54,522.73ZM382,383.68c-7.81.68-9.84-4.41-8.15-9.76s10.87-5.86,10.87-5.86c4.16-.73,7.13,3.06,8.15,5.86S389.77,383,382,383.68ZM494.72,453c4.07-1.7,1.7,1,11.54,2s17.66,8.83,8.83,13.93-11.54-2.72-16.64-8.23S494.72,453,494.72,453Zm-36.81-22.24c.16-.12.32-.26.5-.37a6.26,6.26,0,0,1,4.1-1.11,7.27,7.27,0,0,1,1.21.2,6.6,6.6,0,0,1,2.57,1.35,8.22,8.22,0,0,1,1,1,12,12,0,0,1,1.64,2.75,32.7,32.7,0,0,1,1.53,4.27,57.73,57.73,0,0,1,1.67,8.19,34,34,0,0,1,.27,4.38l0,.58,0,.74a13.23,13.23,0,0,1-.23,1.38,17.14,17.14,0,0,1-.72,2.35,36.28,36.28,0,0,1-4.16,7.36,54.55,54.55,0,0,1-11,11.6,28.54,28.54,0,0,1-7.23,4.11,22,22,0,0,1-8.46,1.12,14.31,14.31,0,0,1-8.53-3.12,9.42,9.42,0,0,1-2.87-4.37,10.74,10.74,0,0,1-.26-5,21.1,21.1,0,0,1,3.49-8c1.47-2.25,3.09-4.28,4.7-6.3,3.26-4,6.69-7.8,10.12-11.57l5.21-5.61,2.62-2.8,1.32-1.41.32-.36.16-.23s0,0,0,0l.05-.05a7.92,7.92,0,0,1,.61-.67C457.65,431,457.77,430.88,457.91,430.76Zm-20.45,59.41c-1.86-9.73,10.4,1.2,12.89,11.39s25.35,7.47,7.39,12.9S437.46,490.17,437.46,490.17Zm-2.85-77.58c5.77-5.1,14.26-1,14.26-1,2.59.91,1.7,3.05-2,5.34s-6.46,4.51-11.89,6.54S428.84,417.68,434.61,412.59ZM414.1,359l-.66-1.31a18.25,18.25,0,0,1-.49-10.27,40,40,0,0,1,3.08-9.2,30.68,30.68,0,0,1,2.43-4.29,18.48,18.48,0,0,1,3.61-3.9,19.37,19.37,0,0,1,9.83-3.77,35,35,0,0,1,5-.21c.82,0,1.62,0,2.42.07a16.46,16.46,0,0,0,1.87-.06,13.08,13.08,0,0,0,3.56-.82,11.45,11.45,0,0,0,1.62-.75c.26-.15.5-.3.73-.45l.33-.23.13-.11.06,0v0l.33-.19a5.08,5.08,0,0,1,.47-.23,33.21,33.21,0,0,1,3.43-.35,8.76,8.76,0,0,1,1.48,0l1.37.08a25.63,25.63,0,0,1,2.78.47,19.78,19.78,0,0,1,2.81.95,13.26,13.26,0,0,1,5,3.92,12.09,12.09,0,0,1,2.23,5.9,12.36,12.36,0,0,1-.88,6,11,11,0,0,1-.68,1.38,7.57,7.57,0,0,1-.84,1.3l-.49.63c-.15.19-.25.28-.38.43l-.71.82a14.46,14.46,0,0,0-2.2,3.07,9.24,9.24,0,0,0-.83,3.42c-.09,1.35-.09,2.81-.08,4.29l0,1.13,0,1.36a6.79,6.79,0,0,1-.17,1.44,6.46,6.46,0,0,1-.36,1.49,6.74,6.74,0,0,1-.7,1.53l-.47.74c-.18.23-.41.44-.61.65a5.57,5.57,0,0,1-1.4,1.09,7.53,7.53,0,0,1-1.51.69,14.17,14.17,0,0,1-5.53.45,59.06,59.06,0,0,1-9.32-1.91,26.08,26.08,0,0,0-8.35-.63c-2.92.16-6.05.65-9.54.21a13.4,13.4,0,0,1-5.08-1.7,6.39,6.39,0,0,1-1.21-.83,5.83,5.83,0,0,1-1.11-1A10.63,10.63,0,0,1,414.1,359Zm98.43,174.6a9.23,9.23,0,0,1-2.63.17h-.47l-.64,0-.42,0h0l-.78-.1a12.6,12.6,0,0,1-6.68-3.27,15.06,15.06,0,0,1-4.2-8.34,24,24,0,0,1-.34-4.16,36.45,36.45,0,0,1,1-7.68l.45-1.87.55-1.83c.36-1.22.9-2.39,1.35-3.57s1.06-2.32,1.72-3.44A29.49,29.49,0,0,1,506,493.2a20.6,20.6,0,0,1,6.63-4.71l1-.39c.34-.13.72-.19,1.09-.29s.72-.18,1.1-.22l1.18-.08a10.8,10.8,0,0,1,2.38.21,18.81,18.81,0,0,1,2,.58,11.58,11.58,0,0,1,3.89,2.27,9.76,9.76,0,0,1,2.65,4,12.83,12.83,0,0,1,.63,4.36,16.56,16.56,0,0,1-.15,2l-.13,1-.08.71v.11c.4.16,1,.36,1.56.63.34.15.68.34,1,.53a7.67,7.67,0,0,1,1.23,1,9.14,9.14,0,0,1,2.33,4.54,11.43,11.43,0,0,1,0,4.66,15.68,15.68,0,0,1-4.1,7.66,35,35,0,0,1-6.06,4.81l-5.73,4a34.12,34.12,0,0,1-3.35,2.11,10.82,10.82,0,0,1-2.08.84Z" transform="translate(0 0)"/><path class="cls-5" d="M456.59,432.2l.1-.12h0l0,0Z" transform="translate(0 0)"/><path class="cls-5" d="M422.41,275s0,0,0,0h0Z" transform="translate(0 0)"/><path class="cls-5" d="M441.46,262.61l-.15,0Z" transform="translate(0 0)"/><path class="cls-6" d="M528.39,512.79a8.86,8.86,0,0,1-2.81,4.28,29.13,29.13,0,0,1-5.22,3.44l-6,3.62a22.92,22.92,0,0,1-2.67,1.47,2.28,2.28,0,0,1-.7.22l-.78-.1h-.32c-.09,0,0,0-.08,0h-.08l-.23,0c-.16,0-.34-.07-.5-.08-.34-.08-.67-.19-1-.29a7.72,7.72,0,0,1-1.67-.93,6.75,6.75,0,0,1-1.9-3.09c-.08-.25-.15-.53-.21-.8a17.14,17.14,0,0,1-.41-2.8c0-.7,0-1.41,0-2.13,0-.3,0-.61,0-.92.1-1.06.14-2.13.34-3.17l.25-1.57.36-1.56c.21-1,.6-2,.89-3a30,30,0,0,1,1.23-2.92,22.94,22.94,0,0,1,3.37-5.21,13.53,13.53,0,0,1,4.5-3.62l.61-.27a4.87,4.87,0,0,1,.6-.16,3.47,3.47,0,0,1,.59-.16l.53-.05h.06a5,5,0,0,1,1.1.05,10.94,10.94,0,0,1,1.33.36,6.25,6.25,0,0,1,2.28,1.31,4,4,0,0,1,1.06,1.65,7.41,7.41,0,0,1,.31,2.54,12.65,12.65,0,0,1-.12,1.47l-.27,1.79a6.42,6.42,0,0,0,.24,3,4.47,4.47,0,0,0,1.39,1.89,5.32,5.32,0,0,0,.79.5c.19.09.44.22.58.27.69.29,1.09.43,1.47.64a5.33,5.33,0,0,1,.51.31l.11.14a3.79,3.79,0,0,1,.61,1.69A5.48,5.48,0,0,1,528.39,512.79Z" transform="translate(0 0)"/><path class="cls-5" d="M457,431.74l.34-.36.08-.09,0-.05-.12.1a3.48,3.48,0,0,0-.46.48l-.19.26Z" transform="translate(0 0)"/><path class="cls-5" d="M572.4,524.7a.14.14,0,0,0,0,.11C572.46,524.92,572.42,524.8,572.4,524.7Z" transform="translate(0 0)"/><path class="cls-6" d="M585.24,383.72a19.34,19.34,0,0,1-1.58,6.29c-.24.5-.43,1-.71,1.51l-.38.75a2.9,2.9,0,0,1-.29.46,3.36,3.36,0,0,1-1.57,1,10.1,10.1,0,0,1-5.25-.18,22.62,22.62,0,0,1-5.71-2.43,29.3,29.3,0,0,1-9.22-8.57,15.25,15.25,0,0,1-2.3-5.06,18.63,18.63,0,0,1-.31-5.92,25.33,25.33,0,0,1,1.26-5.21,11.14,11.14,0,0,1,.4-1.1,24.23,24.23,0,0,1,1.41-3.07c.26-.51.54-1,.83-1.48l.45-.71.21-.34.1-.15h0l1.13-1c.45-.4.88-.79,1.32-1.13a8.28,8.28,0,0,1,1-.76,6.2,6.2,0,0,1,.51.59l1.15,1.47c.8,1,1.66,2,2.54,2.87a60.44,60.44,0,0,0,5.65,5c.44.37.86.72,1.26,1.07s.95.82,1.42,1.25a33.08,33.08,0,0,1,2.33,2.58,18.9,18.9,0,0,1,2.49,3.7A16.07,16.07,0,0,1,585.24,383.72Z" transform="translate(0 0)"/><path class="cls-5" d="M659.13,378.26a116.78,116.78,0,0,0-2.64-22.61c-.35-1.87-.89-3.66-1.35-5.48s-1.08-3.6-1.7-5.36c-1.21-3.49-2.83-7.07-4.32-10.63a177.2,177.2,0,0,0-23.76-39.37,173.26,173.26,0,0,0-15.66-16.89c-2.83-2.71-5.71-5.24-8.76-8.42l-7.42-7.9-.7-.77-8.06-8.62a46.94,46.94,0,0,0-8.11-7,59.78,59.78,0,0,0-19.95-8.61A99.15,99.15,0,0,0,534.38,234l-5.7,0-5.8.26c-3.86.24-7.71.53-11.52,1s-7.6,1-11.36,1.71-7.47,1.56-11.15,2.59-7.38,2.2-11.26,3.37c-1,.29-2,.57-3,.84s-2,.53-3.08.78a44.8,44.8,0,0,1-6.48,1l-.16,0a2.49,2.49,0,0,0-.35.08,3.85,3.85,0,0,0-.68.26,3.09,3.09,0,0,0-.86.58,1.75,1.75,0,0,0-.34.67,4,4,0,0,0-.09,1.33,4.56,4.56,0,0,0,.12.91,5.51,5.51,0,0,0,.24,1c.13.38.19.65.34,1.12l.51,1.46c.66,2,1.29,4,1.82,6s1,4.11,1.35,6.07.75,3.69,1.23,5.41c.24.85.51,1.71.8,2.56s.62,1.76.95,2.54a11.62,11.62,0,0,0,.94,1.93,3.1,3.1,0,0,0,.85,1c1.89,1.37,6.75,3.28,10.18,6.1a54.37,54.37,0,0,1,9.12,9.14,77.63,77.63,0,0,1,7,10.47c1,1.82,2,3.72,2.81,5.54a36.35,36.35,0,0,0,2.4,4.59,11.64,11.64,0,0,0,1.34,1.55,16,16,0,0,0,1.79,1.41l1.26.87c.5.34,1,.72,1.46,1.12A22.4,22.4,0,0,1,517,333c.88-1.63,1.75-3.27,2.59-4.91l2.42-4.85,1.22-2.52a29.34,29.34,0,0,1,1.59-2.78,35.21,35.21,0,0,1,8.48-8.91,93.91,93.91,0,0,1,9.55-6.22l1.79-1.13v-.23h.32a21.93,21.93,0,0,0,2-1.46,6.32,6.32,0,0,0,1.15-1.24,1.44,1.44,0,0,0,.11-.19s0,0,.06-.11l0-.27a9.11,9.11,0,0,0,.24-1.16c.56-3.28.77-7.37,2.54-11.21.25-.47.49-.94.75-1.4s.61-.89.94-1.31l1.11-1.14c.41-.35.86-.65,1.27-1a11.2,11.2,0,0,1,5.66-1.58,14.48,14.48,0,0,0-4.13,3.34,9.78,9.78,0,0,0-1.9,4.35c-.65,3.19-.26,6.61-.56,10.62a15.08,15.08,0,0,1-.19,1.58l0,.4c0,.17-.1.38-.15.56a6.33,6.33,0,0,1-.4,1.09,5.87,5.87,0,0,1-.35.66c1.32.14,2.62.3,3.94.48,2.08.3,4.16.62,6.24,1.06a43.19,43.19,0,0,1,6.18,1.67c-2.08.46-4.12,1-6.17,1.43s-4.09.85-6.13,1.24a101.3,101.3,0,0,1-12.32,1.69v-.07c-2.44,1.75-4.79,3.41-6.88,5.24a29.84,29.84,0,0,0-6.36,7.37,15.32,15.32,0,0,0-1.06,2.05l-1.1,2.51c-.76,1.73-1.58,3.42-2.4,5.11a189,189,0,0,1-10.14,18.25,35.83,35.83,0,0,0,.88,8,20.49,20.49,0,0,0,4.3,8.75,19.72,19.72,0,0,0,1.68,1.75c.59.57,1.36,1.16,2,1.74a42,42,0,0,0,4.41,3c1.56.95,3.19,1.77,5.12,2.85a22.09,22.09,0,0,1,3.08,2.11,13.12,13.12,0,0,1,2.76,3.31,20.24,20.24,0,0,1,2.35,7.08c.34,2.08.57,4.16.76,6.17.37,4.06.53,7.82,1.71,10.21a10.38,10.38,0,0,0,2.6,3.4c.23.24.66.61,1,.94l1.17,1,.61.58c.22.22.42.38.68.68a8.06,8.06,0,0,1,.8.94c.15.22.27.38.44.65s.32.63.46.95a6.05,6.05,0,0,1,.4,2.12v.48l0,.28-.06.57c-.07.56-.12.95-.15,1.33a18.65,18.65,0,0,0,0,2.38,50.06,50.06,0,0,0,.71,5.39,47.77,47.77,0,0,0,1.15,5.27,11.28,11.28,0,0,0,1.92,3.9c1.56,2.07,4.83,3.65,8.26,5.05a38.83,38.83,0,0,1,6,2.91c.51.31,1,.69,1.53,1.05s1,.82,1.48,1.25a14.37,14.37,0,0,1,2.55,3.22,20.7,20.7,0,0,1,2.2,6.16c.05.23.11.46.15.69.41,2.07.72,3.94,1.13,5.76.85,3.85,1.61,7.87,2.46,11.54a42.52,42.52,0,0,0,1.49,5.17c.31.82.64,1.59,1,2.36.2.4.4.77.6,1.16l.74,1.41a27.25,27.25,0,0,1,1.4,3.18,17.83,17.83,0,0,1,.91,3.75c.27,2.32.36,4,.65,5.83a8.08,8.08,0,0,0,1.17,3.47.86.86,0,0,0,.44.36.17.17,0,0,1,.11,0h.22c.09.07.39,0,.6,0a12.43,12.43,0,0,0,3.94-1.58l1.08-.66c.37-.23.74-.5,1.1-.74l1.12-.78,1.25-.89c3.31-2.4,6.9-4.57,10.13-6.59a24,24,0,0,0,3.94-2.92A6.77,6.77,0,0,0,617,483l.47-1.62c.19-.57.39-1.14.59-1.71a24.54,24.54,0,0,1,1.65-3.28,31.85,31.85,0,0,1,4.22-5.42c3-3.12,6-5.7,9-8.34l4.48-3.88c.42-.35.65-.6.9-.84a7.92,7.92,0,0,0,.77-.83c.26-.31.53-.6.79-.93l.76-1a60.14,60.14,0,0,0,5.35-9.6,130.54,130.54,0,0,0,5.24-13.76c.07-.74.07-1.5.09-2.26a32.9,32.9,0,0,0-.51-5.13,33.6,33.6,0,0,0-3.53-10,37.33,37.33,0,0,0-3-4.59,26.74,26.74,0,0,0-1.72-2.2c-.63-.69-1.26-1.38-1.88-2.12s-1.34-1.34-2-2-1.39-1.35-2-2.06a6.12,6.12,0,0,0-.48-.41c-1.31-1.17-2.63-2.32-3.94-3.61,1.2.38,2.41.8,3.59,1.25h0c.69.27,1.39.55,2.07.84.91.47,1.77,1,2.68,1.44a22,22,0,0,1,2.63,1.61,36.81,36.81,0,0,1,4.85,3.9,30.07,30.07,0,0,1,2.54,2.63c.58.68,1.14,1.36,1.72,2.05a38.5,38.5,0,0,1,3.1,4.95c1-4.89,1.9-9.82,2.52-14.78A152.32,152.32,0,0,0,659.13,378.26ZM500,294.41c-11-2.71-5.49-13.76-5.49-13.76,1.38-6.33,7.64-.5,9.68,0S511,297.13,500,294.41Zm21.84-14.94c-9.5-4.07-2.93-13.58-2.93-13.58,6.56-3.4,9,.68,12.65,5.43S531.39,283.55,521.88,279.47Zm93,130.56c-3.4-9.36,0-15.78,0-15.78a43.15,43.15,0,0,1,8.15,10.19C627.15,411.23,618.33,419.38,614.93,410Zm-27.52-83.26c11.87-4.34,5.79,1.6,11.22,10.43s-8.83,5.43-15.62,0S583.89,328,587.41,326.77Zm-13.28,73.66a27.18,27.18,0,0,1-8-2.55,31.52,31.52,0,0,1-6.85-4.55,31,31,0,0,1-5.52-6.14,20.32,20.32,0,0,1-3.16-8.37,22.54,22.54,0,0,1,.64-8.59,34.71,34.71,0,0,1,3.14-7.44c.63-1.15,1.34-2.25,2.07-3.34.36-.54.76-1.06,1.15-1.59l.61-.77.32-.4.17-.19c.09-.12.23-.28.35-.41l.92-.69.78-.54c.51-.37,1-.72,1.59-1.09a12.92,12.92,0,0,1,2-1.09,7.31,7.31,0,0,1,.75-.25,3.54,3.54,0,0,1,1.07-.1,3.41,3.41,0,0,1,2.06.87,8.61,8.61,0,0,1,1.4,1.89l.93,1.55a25.3,25.3,0,0,0,2,2.84,31.65,31.65,0,0,0,5,4.94,47,47,0,0,1,5.61,5.08,25.5,25.5,0,0,1,4.42,6.43,21.83,21.83,0,0,1,2,7.78,24.17,24.17,0,0,1-1,8c-.21.63-.37,1.28-.62,1.9l-.32.93c-.11.3-.36.79-.55,1.17a9.16,9.16,0,0,1-3.91,3.65A15.46,15.46,0,0,1,574.13,400.43Zm73.15-16L647,385.5c-.12.4-.28.82-.42,1.22A9.46,9.46,0,0,1,645,389.4a5.4,5.4,0,0,1-.72.71,4.15,4.15,0,0,1-1,.62,4.67,4.67,0,0,1-2.44.54,6.46,6.46,0,0,1-3.49-1.29,18.93,18.93,0,0,1-3.6-3.54c-1-1.21-1.81-2.42-2.63-3.64-3.23-4.88-6-9.82-8.82-14.68-.7-1.16-1.43-2.63-2.14-3.93s-1.25-2.76-1.71-4.2a55.76,55.76,0,0,1-2.36-8.66,75.8,75.8,0,0,1-1.16-8.87c-.09-1.5-.17-3-.21-4.5l0-2.28v-1.16l0-.59v-.41l.06-.35a5.13,5.13,0,0,1,.19-.7,14.18,14.18,0,0,1,1.22-1.86c.35-.39.67-.76,1-1.13a10.15,10.15,0,0,1,2.83-2,8.47,8.47,0,0,1,3.78-.78,9.56,9.56,0,0,1,3.44.74,14.64,14.64,0,0,1,2.09,1.1,18.45,18.45,0,0,1,2.53,2,34,34,0,0,1,3.24,3.51,70.88,70.88,0,0,1,5.08,7.33l2.24,3.71,1.09,1.85,1.1,2.06a46.19,46.19,0,0,1,4.44,17.59,54.14,54.14,0,0,1-1.1,14.74C647.81,382.36,647.57,383.4,647.28,384.42Z" transform="translate(0 0)"/><path class="cls-6" d="M657.93,401.22c-.62,5-1.48,9.89-2.52,14.78a39,39,0,0,0-2.73-4.43c-.12-.18-.25-.36-.37-.52-.58-.69-1.14-1.37-1.72-2.05,1.58-4,3.77-11.46,1.3-18.61-.75-2.17-2.13-5.27-3.86-9.06-5.91-12.93-15.86-33.78-18.62-52.76-.29-1.92-.49-3.84-.61-5.73-1.65-25.78-19.93-25.09-26.26-36.62-3.11-5.66-4.63-15-9-24.62l7.42,7.9c2.17,2.27,4.26,4.2,6.3,6.1.83.77,1.64,1.53,2.46,2.32a173.26,173.26,0,0,1,15.66,16.89,177.2,177.2,0,0,1,23.76,39.37c1.49,3.56,3.11,7.14,4.32,10.63.62,1.76,1.17,3.56,1.7,5.36s1,3.61,1.35,5.48a116.78,116.78,0,0,1,2.64,22.61A152.32,152.32,0,0,1,657.93,401.22Z" transform="translate(0 0)"/><path class="cls-5" d="M565.78,356.4a.4.4,0,0,0-.15-.11S565.68,356.35,565.78,356.4Z" transform="translate(0 0)"/><path class="cls-6" d="M622.71,335a2,2,0,0,1-.15.43l.11-.4.07-.22Z" transform="translate(0 0)"/><path class="cls-6" d="M641.62,382.83l-.26.95-.27.78c-.11.26-.23.52-.33.71,0,0-.06,0-.1-.07a12.61,12.61,0,0,1-2.41-2.4c-.81-1-1.6-2.09-2.38-3.21-3-4.52-5.84-9.45-8.74-14.31-.79-1.25-1.31-2.34-2-3.51-.5-1.21-1.11-2.38-1.51-3.64a36.84,36.84,0,0,1-1.84-7.74,38.89,38.89,0,0,1-.29-8c.07-1.33.22-2.66.42-4,.1-.65.23-1.31.37-1.94a6,6,0,0,1,.23-1v0a.19.19,0,0,1,0,.1l.34-.42a2.94,2.94,0,0,1,.57-.5c.14-.09.18-.14.32-.14a1.51,1.51,0,0,1,.69.12,5.59,5.59,0,0,1,1.36.71,10.47,10.47,0,0,1,1.08.81,26.9,26.9,0,0,1,2.63,2.61,65.81,65.81,0,0,1,4.85,6.4c.77,1.14,1.53,2.3,2.26,3.48l.79,1.26.33.52.93,1.64a39.75,39.75,0,0,1,4.16,15A45,45,0,0,1,641.62,382.83Z" transform="translate(0 0)"/><path class="cls-4" d="M664.34,347.6c-.57-2-1.17-4-1.84-5.94-1.36-4-3-7.62-4.54-11.37a178.23,178.23,0,0,0-41.27-59.66c-2.86-2.78-5.89-5.51-8.3-8.06l-8-8.67-8.1-8.71a58.33,58.33,0,0,0-9.81-8.44,70.29,70.29,0,0,0-23.33-10.06,109.47,109.47,0,0,0-24.67-2.82c-2,0-4.1,0-6.14.09l-6,.31c-4,.28-8.06.61-12.09,1.12s-8.06,1.13-12.07,1.89-8,1.74-11.9,2.87-7.76,2.36-11.43,3.5a49.14,49.14,0,0,1-10.55,2.3c-.48.05-.54.07-.79.11l-.56.11c-.38.08-.72.18-1.08.28a15.72,15.72,0,0,0-2.09.8,13,13,0,0,0-3.89,2.9,11.33,11.33,0,0,0-2.4,4.52,13.4,13.4,0,0,0-.39,4.55,15.68,15.68,0,0,0,.29,2,11.12,11.12,0,0,0,.46,1.85c.17.57.37,1.24.54,1.71l.47,1.34c.62,1.78,1.19,3.56,1.67,5.34s.88,3.56,1.27,5.48c.19.95.4,1.95.63,3a13.38,13.38,0,0,0-1.4-2.47,12.68,12.68,0,0,0-7.36-5.07,15.74,15.74,0,0,0-4.34-.39,16.31,16.31,0,0,0-2.09.24c-.34.06-.69.12-1,.21l-.42.11h-.08l-.46.05-.9.1c-.59.08-1.17.17-1.76.27-1.17.21-2.33.47-3.51.79a22.68,22.68,0,0,0-7.14,3.21,12.66,12.66,0,0,0-3.33,3.42,12.25,12.25,0,0,0-.63,1.19,11.4,11.4,0,0,0-.46,1.05c-.17.47-.35.92-.52,1.32a6,6,0,0,1-.55,1.09l-.06,0a9.2,9.2,0,0,1-.94.22c-1.8.32-4.15.64-6.32,1.06A32,32,0,0,0,408,278.8a61.84,61.84,0,0,0-11.62,7.51,65.72,65.72,0,0,0-9.76,9.69c-.73.91-1.41,1.86-2.12,2.79s-1.31,2-1.93,3-1.19,2.08-1.7,3.18l-1.4,3.13a33.87,33.87,0,0,1-6.32,9.32c-2.72,3-5.86,6.2-8.7,9.87a48.27,48.27,0,0,0-7,12.26,52.66,52.66,0,0,0-2.09,6.72l-.43,1.7-.33,1.59-.66,3.18c-.43,2.11-.84,4.26-1.23,6.4l-.55,3a19.55,19.55,0,0,1-.71,2.51l-4.28,12c-.36,1-.69,2.14-1,3.24s-.73,2.23-.94,3.34c-.5,2.24-1,4.47-1.33,6.7a114.48,114.48,0,0,0-1.28,13.37,140.62,140.62,0,0,0,1.65,26.55,81.47,81.47,0,0,0,3.25,13.32,30.47,30.47,0,0,0,1.38,3.41l.85,1.74a19.31,19.31,0,0,0,1.17,1.84c1,1.42,1.45,1.89,2.08,2.72l.86,1.14.78,1.13A25.34,25.34,0,0,1,357,460c.7,1.78,1.35,3.76,2,5.79,1.35,4.07,2.79,8.22,4.31,12.28l1.17,3.06,1.27,3.12c.92,2,1.82,4.12,2.88,6.11a91.26,91.26,0,0,0,7,11.57,96.41,96.41,0,0,0,8.5,10.47,112.69,112.69,0,0,0,9.66,9.28A159.25,159.25,0,0,0,415.38,537a141.4,141.4,0,0,0,24,11.3A152.13,152.13,0,0,0,465,555.17c2.18.41,4.4.66,6.59,1s4.43.49,6.68.57a79.09,79.09,0,0,0,13.65-.26l3.48-.49,3.52-.8,6.18-1.68c4.08-1.1,8.2-2.14,12.32-3.15,8.26-2,16.57-3.89,24.9-5.7l12.55-2.72a81.74,81.74,0,0,0,13-3.93,39.91,39.91,0,0,0,6.45-3.21,22.11,22.11,0,0,0,3.21-2.38,17.65,17.65,0,0,0,1.59-1.63c.26-.31.51-.69.76-1l.36-.55a5.8,5.8,0,0,0,.33-.66,10.68,10.68,0,0,0,.58-1.43c.13-.55.24-1.12.32-1.69a9.94,9.94,0,0,0-.06-1.8,6.89,6.89,0,0,0-.27-1.35,16.45,16.45,0,0,0-1.72-4c-.6-1-1.06-1.78-1.42-2.54a16.82,16.82,0,0,1-.94-2.36A28.58,28.58,0,0,1,576,507.9c-.24-1.94-.32-3.91-.4-6a52.42,52.42,0,0,0-2.28-13.79,89.69,89.69,0,0,0-5.09-12.45,69.85,69.85,0,0,1-4.53-11.17l-1.6-6.21a27.07,27.07,0,0,0-2.82-7.06,20.66,20.66,0,0,0-5.46-5.82,47.18,47.18,0,0,0-6-3.71l-5.68-2.85a25.51,25.51,0,0,1-4.5-3.06c-2.57-2.25-3.63-4.7-4-8.57-.18-1.9-.24-4-.31-6.13s-.14-4.33-.36-6.7a33.66,33.66,0,0,0-4.3-13.86,21.38,21.38,0,0,0-5.21-5.9,13.51,13.51,0,0,0-4-2.21,16.71,16.71,0,0,0-4.11-.7c-2.27-.11-3.89-.32-4.51-.72a2,2,0,0,1-.79-.85c-.07-.14-.12-.17-.23-.39l-.35-.74-.76-1.53a28.77,28.77,0,0,0-1.89-3.22,17.94,17.94,0,0,0-2.7-3.06,26.8,26.8,0,0,0-2.92-2.28l-1.42-1c-.47-.31-.9-.6-1.51-.95a20.35,20.35,0,0,0-3.5-1.68l-1.51-.55-.08,0v0a20.22,20.22,0,0,1,.19-2.59l.43-3.14.42-3.24c.28-2.18.44-4.45.65-6.41.11-1,.27-1.94.4-3.29a29.88,29.88,0,0,0,.05-3.63,22.9,22.9,0,0,1,.05-2.78c.08-.9.22-1.83.4-2.79.37-1.93.89-3.87,1.46-5.94.28-1,.59-2.14.83-3.39a13.93,13.93,0,0,0,.26-4.26,12.76,12.76,0,0,0-1.18-4.26,22.31,22.31,0,0,0-1.94-3.35,58,58,0,0,0-4.33-5.32c-5.82-6.42-11.56-12.56-16.83-19.11-2.64-3.26-5.12-6.61-7.38-10a47.92,47.92,0,0,1-5.42-10.57c-.14-.45-.33-.9-.43-1.33l-.26-1.31-.14-.65c0-.2-.09-.41-.14-.75l-.08-.44h0c.36,1,.72,2,1.15,3a22.25,22.25,0,0,0,1.71,3.36,12.51,12.51,0,0,0,3.12,3.38,23.27,23.27,0,0,0,3.16,1.91l2.66,1.36c.9.47,1.55.82,2.27,1.27s1.4.92,2.09,1.44a45.73,45.73,0,0,1,7.63,7.55,65.72,65.72,0,0,1,6.23,9.17c.92,1.61,1.75,3.25,2.59,5a41.18,41.18,0,0,0,3.19,5.84,20.22,20.22,0,0,0,2.55,2.91,23.81,23.81,0,0,0,2.87,2.24l1.18.81a8.61,8.61,0,0,1,.91.68,14,14,0,0,1,1.62,1.55,15,15,0,0,1,3.54,8.33c.09.81.13,1.63.14,2.45l0,1.25-.09,1.43c-.14,1.94-.29,4-.36,6.08a48.21,48.21,0,0,0,1.13,12.92,29.24,29.24,0,0,0,6.15,12.27,27.45,27.45,0,0,0,2.43,2.51c.84.8,1.66,1.4,2.49,2.11a52.52,52.52,0,0,0,5.34,3.66c1.82,1.09,3.74,2.05,5.25,2.9a14.35,14.35,0,0,1,1.82,1.2,5,5,0,0,1,1,1.21,12.9,12.9,0,0,1,1.29,4.13c.3,1.82.52,3.68.71,5.59s.32,3.89.61,6.06a23,23,0,0,0,1.91,6.91,18.93,18.93,0,0,0,4.52,6c.47.45.8.72,1.17,1l1,.93.47.43.16.16c0,.35-.08.74-.12,1.14a26.28,26.28,0,0,0,0,3.54,60,60,0,0,0,.83,6.36,54.28,54.28,0,0,0,1.43,6.28,19.49,19.49,0,0,0,3.39,6.62,20.2,20.2,0,0,0,5.68,4.69,49.44,49.44,0,0,0,5.86,2.81,30.94,30.94,0,0,1,4.68,2.28,7.69,7.69,0,0,1,2.8,2.71c1.21,1.95,1.6,6.18,2.48,10.2s1.53,7.62,2.43,11.67A50.44,50.44,0,0,0,577,481.7a33.16,33.16,0,0,0,1.3,3.09c.23.51.5,1,.75,1.49l.63,1.22a20.19,20.19,0,0,1,1,2.24,9,9,0,0,1,.47,2c.18,1.6.33,3.9.64,6a19.94,19.94,0,0,0,.85,3.63,12.27,12.27,0,0,0,2,3.88,9.3,9.3,0,0,0,4.25,3.12c.43.14.87.28,1.31.39s.83.11,1.25.15a11.47,11.47,0,0,0,2.36-.06,20,20,0,0,0,7.06-2.61l1.46-.86c.47-.3.91-.61,1.36-.91l2.48-1.73c3.11-2.22,6.3-4.13,9.78-6.28a31.16,31.16,0,0,0,5.52-4.16,15.61,15.61,0,0,0,4-7.05l.36-1.23.38-1.08a15.81,15.81,0,0,1,1-2,24.05,24.05,0,0,1,3.1-3.88c2.48-2.59,5.48-5.15,8.43-7.71l4.49-3.85c.34-.28.81-.73,1.27-1.17a14,14,0,0,0,1.26-1.32c.38-.45.78-.89,1.13-1.34l1-1.34a69.37,69.37,0,0,0,6.25-11,146.29,146.29,0,0,0,8.19-23,179.15,179.15,0,0,0,4.77-23.83,163.32,163.32,0,0,0,1.42-24.34,127,127,0,0,0-2.7-24.42C665.42,351.6,664.83,349.61,664.34,347.6Zm-222.88-85-.15,0Zm-19,12.41h0S422.42,275,422.41,275Zm150,249.79a.14.14,0,0,1,0-.11C572.42,524.8,572.46,524.92,572.41,524.81ZM460.53,295.15q3.66,5.58,7.78,10.66c5.43,6.81,11.36,13.19,17,19.46a53.48,53.48,0,0,1,3.76,4.63,9.16,9.16,0,0,1,1.81,4.08,14.69,14.69,0,0,1-.89,4.94c-.58,2.05-1.19,4.24-1.64,6.51-.22,1.14-.41,2.32-.53,3.56a32.06,32.06,0,0,0-.1,3.62,22.68,22.68,0,0,1-.05,2.79c-.07.77-.27,2-.4,3.06-.26,2.3-.41,4.29-.69,6.36l-.89,6.33a26.42,26.42,0,0,0-.24,2.85c-1.59,1.57-3,3.13-4.4,4.78a79.21,79.21,0,0,0-4.91,6.51,62.57,62.57,0,0,0-7.44,14.51,40.35,40.35,0,0,0-1.2,3.92l-.48,2c-.14.67-.23,1.35-.34,2l-.3,2-.24,1.88c-.13,1.27-.38,2.5-.61,3.75a27.93,27.93,0,0,1-2.24,7.15,10.15,10.15,0,0,1-2.14,3,4.45,4.45,0,0,1-3.4,1.32,4.67,4.67,0,0,0,3.88-.66,10.25,10.25,0,0,0,3-2.81,29.13,29.13,0,0,0,3.72-7.2c.42-1.27.88-2.54,1.21-3.83l.53-1.94.55-1.78c.19-.59.34-1.19.55-1.77l.7-1.72a32,32,0,0,1,1.5-3.39,62.77,62.77,0,0,1,8.24-12.36c1.57-1.93,3.31-3.72,5-5.5.81-.81,1.65-1.63,2.51-2.41l.3.15c.36.16.77.34,1,.43l1.5.56a12.82,12.82,0,0,1,2.26,1.1c.32.18.78.49,1.2.77l1.24.85A20.92,20.92,0,0,1,498.8,387a10,10,0,0,1,1.52,1.75,20.18,20.18,0,0,1,1.32,2.32l.67,1.36.33.7c.12.26.36.69.55,1a9.91,9.91,0,0,0,3.61,3.7,12.84,12.84,0,0,0,4.43,1.5c1.34.21,2.52.26,3.51.34a9.63,9.63,0,0,1,2.2.34,6.58,6.58,0,0,1,1.56,1,13.12,13.12,0,0,1,3.19,3.7,25.62,25.62,0,0,1,3.08,10.5c.16,1.89.24,4,.28,6.11s.09,4.32.3,6.68a23.29,23.29,0,0,0,1.82,7.52A19.33,19.33,0,0,0,532,442a33.65,33.65,0,0,0,6,4.2l5.76,3a37.53,37.53,0,0,1,4.88,3,12.34,12.34,0,0,1,3.28,3.46c1.5,2.46,2.21,6.8,3.38,11.08a50.85,50.85,0,0,0,2.13,6.24,13.3,13.3,0,0,0-3.3-2.37s-11.75.39-9.45,7.86,4.13,10.19,4.57,19,5.62,24.45,11.53,21.06-.48-10.87,0-21.06c.24-5.31,1.09-11,.46-16a68,68,0,0,1,3.57,9.15,43.31,43.31,0,0,1,1.81,11.46c.07,2.19.15,4.49.42,6.8a37,37,0,0,0,1.39,7.12,25.57,25.57,0,0,0,1.41,3.6c.55,1.17,1.21,2.26,1.67,3.08a7.16,7.16,0,0,1,.83,1.86h0l-.09.11c-.07.08-.09.15-.17.25-.25.2-.35.42-.67.65a14.07,14.07,0,0,1-2,1.41,32.45,32.45,0,0,1-5,2.45,73.51,73.51,0,0,1-11.55,3.38l-12.55,2.62c-8.39,1.8-16.77,3.66-25.15,5.66-4.18,1-8.36,2-12.54,3.15l-6.21,1.66-2.74.62-2.87.39a71.28,71.28,0,0,1-12,.16c-2-.07-4.06-.37-6.09-.55s-4.07-.54-6.09-.93a142.87,142.87,0,0,1-23.89-6.51,130.93,130.93,0,0,1-22.3-10.59,149.09,149.09,0,0,1-20.14-14.44,99.83,99.83,0,0,1-8.8-8.52,86.26,86.26,0,0,1-7.63-9.46,82.08,82.08,0,0,1-6.23-10.39c-.94-1.78-1.76-3.64-2.59-5.48l-1.16-2.82-1.12-2.93c-1.49-3.94-2.87-7.88-4.23-11.92-.51-1.53-1.05-3.11-1.65-4.73.09-.67.2-1.35.35-2a24.34,24.34,0,0,1,1.47-4.59,20.36,20.36,0,0,1,5.5-7.5,16.61,16.61,0,0,1,1.88-1.43l2.49-1.77a23.59,23.59,0,0,0,2.61-2.22,28.84,28.84,0,0,0,2.31-2.62,24,24,0,0,0,3.23-6.07,41.57,41.57,0,0,0,1.64-6.08c.81-3.89,1.26-7.34,2.69-9.84a6.92,6.92,0,0,1,.58-.9l.3-.44c.11-.15.29-.36.43-.54l1.82-2.22,3.55-4.38a76,76,0,0,1,7.42-8.15,21.21,21.21,0,0,1,9.44-5.54,13.72,13.72,0,0,0-6,.19A24.56,24.56,0,0,0,403,394a45,45,0,0,0-5,3.33c-1.56,1.23-3.1,2.5-4.53,3.84s-2.81,2.71-4.16,4.08l-2,2.07-.5.53-.58.7a13.39,13.39,0,0,0-1.09,1.42,24.13,24.13,0,0,0-2.83,6.12c-.66,2-1.08,3.91-1.55,5.7a34.08,34.08,0,0,1-1.59,4.88,18.32,18.32,0,0,1-2.31,3.91c-.5.55-1,1.12-1.52,1.62a14.69,14.69,0,0,1-1.79,1.42l-2.23,1.49a20,20,0,0,0-2.69,2,27.52,27.52,0,0,0-7.53,10l-.28-.37a26.89,26.89,0,0,1-1.82-2.36,8.6,8.6,0,0,1-.56-.86l-.55-1.14a23,23,0,0,1-1-2.53A70.26,70.26,0,0,1,354,428.26a130.28,130.28,0,0,1-1.59-24.58,103.86,103.86,0,0,1,1.13-12.16c.26-2,.72-3.94,1.15-5.89.18-1,.53-1.88.79-2.83s.52-1.83.9-2.87l4.22-12.19a27.62,27.62,0,0,0,1-3.66c.24-1.23.39-2.23.57-3.28.36-2.07.74-4.13,1.14-6.21l.62-3.11.31-1.56.35-1.41a44.67,44.67,0,0,1,1.66-5.53,38.92,38.92,0,0,1,5.62-10c2.37-3.12,5.24-6.08,8.19-9.43A43.07,43.07,0,0,0,388,311.66l1.19-2.75c.38-.84.88-1.65,1.3-2.48L392,304l1.72-2.35a57.18,57.18,0,0,1,8.3-8.46,53,53,0,0,1,9.79-6.56,23,23,0,0,1,5-1.84c2-.43,3.91-.69,6.32-1.16a14.36,14.36,0,0,0,2.16-.59l.64-.25c.24-.11.48-.24.71-.37a8.3,8.3,0,0,0,1.39-1,9.42,9.42,0,0,0,1.84-2.33,11,11,0,0,0,.52-1c.15-.32.3-.65.4-.92.24-.6.44-1.15.63-1.69a1.32,1.32,0,0,1,.19-.41,2.08,2.08,0,0,1,.1-.24,4.1,4.1,0,0,1,1.13-1.12,14.19,14.19,0,0,1,4.49-2c.88-.26,1.8-.47,2.74-.65.46-.09.93-.18,1.4-.24l1.93-.25c3.76-1.36,5.91-.81,7.6,1.3a9.23,9.23,0,0,1,1.12,1.94l.39,1.22.2.61.12.67.26,1.34.36,1.74.4,1.84c.15.6.38,1.14.57,1.71A56.13,56.13,0,0,0,460.53,295.15Zm197.4,106.07c-.62,4.95-1.47,9.88-2.52,14.77a38.67,38.67,0,0,0-3.1-4.94,42.28,42.28,0,0,0-4.27-4.68,35.32,35.32,0,0,0-4.84-3.9,20.72,20.72,0,0,0-2.63-1.6c-.9-.48-1.78-1-2.69-1.44-1.87-.81-3.78-1.5-5.68-2.11,1.45,1.44,2.94,2.73,4.4,4,.68.72,1.38,1.38,2.06,2.07a25.74,25.74,0,0,1,2,2.05c.62.73,1.25,1.42,1.88,2.12a26,26,0,0,1,1.72,2.2,36.48,36.48,0,0,1,3,4.58,33.84,33.84,0,0,1,3.53,10,32,32,0,0,1,.51,5.15c0,.75,0,1.51-.09,2.24A128.55,128.55,0,0,1,646,445.49a60.14,60.14,0,0,1-5.35,9.6l-.76,1c-.26.33-.53.62-.78.94a6.88,6.88,0,0,1-.78.82,10,10,0,0,1-.9.84l-4.48,3.89c-3,2.63-6,5.21-9,8.34a31.77,31.77,0,0,0-4.22,5.41,23.9,23.9,0,0,0-1.64,3.28c-.21.57-.42,1.14-.61,1.71L617,483a6.86,6.86,0,0,1-1.72,3.18,23.65,23.65,0,0,1-4,2.93c-3.23,2-6.81,4.19-10.12,6.58l-1.25.9-1.12.78c-.37.24-.73.51-1.1.74l-1.09.65a12.12,12.12,0,0,1-3.93,1.59c-.2,0-.5.09-.6,0a.81.81,0,0,0-.22,0,.18.18,0,0,0-.11-.05.73.73,0,0,1-.44-.35,7.94,7.94,0,0,1-1.18-3.48c-.28-1.85-.38-3.5-.65-5.83a17.4,17.4,0,0,0-.9-3.74,28,28,0,0,0-1.41-3.18l-.73-1.41c-.2-.39-.41-.76-.59-1.15-.37-.77-.7-1.56-1-2.37a45.13,45.13,0,0,1-1.5-5.18c-.83-3.66-1.6-7.68-2.46-11.52-.4-1.83-.71-3.7-1.12-5.76a21.93,21.93,0,0,0-2.35-6.86,15,15,0,0,0-2.55-3.23c-.49-.42-1-.87-1.49-1.25s-1-.72-1.52-1a38.83,38.83,0,0,0-6-2.91c-3.43-1.39-6.69-3-8.27-5.05a11.59,11.59,0,0,1-1.91-3.89,47,47,0,0,1-1.16-5.27,50.73,50.73,0,0,1-.69-5.39,17.17,17.17,0,0,1,0-2.39c0-.38.08-.77.16-1.33l0-.56,0-.3v-.47a6.05,6.05,0,0,0-.4-2.12c-.14-.32-.29-.64-.46-.95a6.09,6.09,0,0,0-.45-.65,9.1,9.1,0,0,0-.79-.94c-.26-.29-.46-.47-.67-.68l-.63-.58-1.16-1c-.37-.33-.8-.7-1-.94a10.7,10.7,0,0,1-2.59-3.39c-1.18-2.4-1.34-6.16-1.71-10.22-.19-2-.43-4.09-.76-6.17a20.84,20.84,0,0,0-2.34-7.08,13.34,13.34,0,0,0-2.77-3.31,22,22,0,0,0-3.08-2.1c-1.93-1.1-3.56-1.91-5.12-2.85a43.44,43.44,0,0,1-4.42-3.06c-.66-.58-1.44-1.16-2-1.73a18.49,18.49,0,0,1-1.68-1.75,20.61,20.61,0,0,1-4.3-8.75,36.34,36.34,0,0,1-.88-8A191.59,191.59,0,0,0,527,331.85c.82-1.69,1.63-3.39,2.39-5.11l1.11-2.51a17.45,17.45,0,0,1,1.06-2.06,30.55,30.55,0,0,1,6.35-7.36c2.1-1.83,4.45-3.48,6.89-5.23v.06A105.48,105.48,0,0,0,557.13,308c2-.39,4.08-.8,6.13-1.26s4.08-1,6.17-1.42a43.93,43.93,0,0,0-6.19-1.67c-2.07-.43-4.15-.77-6.23-1.06-1.32-.18-2.63-.33-3.94-.48.12-.21.25-.42.36-.66a6.53,6.53,0,0,0,.39-1.08c0-.19.12-.41.15-.57l.06-.4c.08-.54.16-1.08.19-1.57.29-4-.1-7.44.55-10.64a9.69,9.69,0,0,1,1.91-4.34,14.23,14.23,0,0,1,4.13-3.34,11.11,11.11,0,0,0-5.67,1.58c-.42.31-.85.61-1.26,1l-1.13,1.14c-.32.42-.62.87-.92,1.31s-.51.93-.76,1.4c-1.77,3.83-2,7.92-2.54,11.21a11.26,11.26,0,0,1-.24,1.16l-.06.27c0,.07,0,.07-.05.1a.68.68,0,0,1-.11.2,5.52,5.52,0,0,1-1.15,1.24,20.18,20.18,0,0,1-2,1.47l-.32,0v.22q-.87.57-1.8,1.14a97.89,97.89,0,0,0-9.54,6.22,35,35,0,0,0-8.48,8.91,25.38,25.38,0,0,0-1.58,2.79L522,323.28l-2.42,4.85q-1.27,2.46-2.59,4.92a23.3,23.3,0,0,0-5.26-11.19,22.87,22.87,0,0,0-2.64-2.57,17.26,17.26,0,0,0-1.45-1.1l-1.26-.87a15.12,15.12,0,0,1-1.79-1.42,10.28,10.28,0,0,1-1.33-1.55,34.37,34.37,0,0,1-2.41-4.59c-.86-1.82-1.8-3.71-2.82-5.54a75.72,75.72,0,0,0-7-10.47,54.44,54.44,0,0,0-9.13-9.14c-3.42-2.81-8.28-4.73-10.17-6.1a3.22,3.22,0,0,1-.86-1,14.19,14.19,0,0,1-.94-1.94c-.31-.79-.63-1.66-.94-2.54s-.56-1.7-.8-2.56c-.49-1.72-.85-3.45-1.23-5.42s-.82-4-1.35-6.06-1.16-4-1.82-6l-.5-1.46c-.16-.47-.22-.74-.34-1.12a4.87,4.87,0,0,1-.25-1,5.49,5.49,0,0,1-.13-.92,3.86,3.86,0,0,1,.1-1.32,1.63,1.63,0,0,1,.34-.67,3.7,3.7,0,0,1,.85-.59,6,6,0,0,1,.68-.25l.36-.09.16,0s.18,0-.06,0a45.63,45.63,0,0,0,6.54-1c1.05-.24,2.1-.49,3.09-.77s2-.56,3-.85c3.88-1.17,7.55-2.35,11.25-3.36s7.42-1.85,11.16-2.61,7.54-1.27,11.36-1.7,7.66-.74,11.51-1l5.8-.26,5.71,0a99.21,99.21,0,0,1,22.32,2.57,59.92,59.92,0,0,1,20,8.61,47.57,47.57,0,0,1,8.1,7l8,8.64,8.13,8.67c3.06,3.17,5.94,5.69,8.75,8.41a168.38,168.38,0,0,1,39.43,56.27c1.49,3.55,3.11,7.13,4.32,10.61.62,1.77,1.16,3.57,1.7,5.37s1,3.62,1.36,5.48a118.53,118.53,0,0,1,2.63,22.61A153.57,153.57,0,0,1,657.93,401.22Z" transform="translate(0 0)"/><path class="cls-4" d="M451.84,322.86c-1.14.06-2.3.19-3.43.36a4.09,4.09,0,0,0-.47.23l-.33.2,0,0,0,0-.14.11-.33.23c-.22.15-.47.3-.73.45a10.88,10.88,0,0,1-1.62.75,13.09,13.09,0,0,1-3.56.83c-.62.05-1.22.06-1.88.05s-1.59-.06-2.41-.08a38.26,38.26,0,0,0-5,.22,19.25,19.25,0,0,0-9.82,3.77,18,18,0,0,0-3.62,3.9,31.23,31.23,0,0,0-2.43,4.3,39.6,39.6,0,0,0-3.08,9.19,18.24,18.24,0,0,0,.48,10.27l.67,1.31a10.44,10.44,0,0,0,.91,1.22,5.78,5.78,0,0,0,1.11,1,6.09,6.09,0,0,0,1.21.83,13.22,13.22,0,0,0,5.09,1.7c3.48.44,6.61-.05,9.54-.2a25.59,25.59,0,0,1,8.35.61,56.54,56.54,0,0,0,9.31,1.92,13.8,13.8,0,0,0,5.53-.45,7.53,7.53,0,0,0,1.51-.69,6.25,6.25,0,0,0,1.4-1.08c.2-.22.43-.43.61-.66l.47-.74a6.22,6.22,0,0,0,.69-1.52,6.36,6.36,0,0,0,.38-1.5,8.35,8.35,0,0,0,.16-1.44l0-1.36,0-1.12c0-1.48,0-3,.08-4.3a9.29,9.29,0,0,1,.83-3.43,15,15,0,0,1,2.19-3.06l.72-.81c.13-.15.23-.25.38-.44l.48-.62a7.15,7.15,0,0,0,.85-1.31,9.73,9.73,0,0,0,.67-1.38,12.32,12.32,0,0,0-1.34-11.91,13.33,13.33,0,0,0-5-3.91,19.78,19.78,0,0,0-2.81-.95,25.22,25.22,0,0,0-2.78-.47l-1.37-.09A10,10,0,0,0,451.84,322.86Zm-.07,7.76.19-.1.1-.06a1.27,1.27,0,0,1-.27.16l-.18.09Zm4.16.15c.55.09,1.05.23,1.55.36a6.28,6.28,0,0,1,2.31,1.45,5.24,5.24,0,0,1,1.12,2.44,5.76,5.76,0,0,1-.21,3,2.78,2.78,0,0,1-.28.69,2.08,2.08,0,0,1-.35.62l-.19.3a5.29,5.29,0,0,1-.34.44l-.74.94A20.4,20.4,0,0,0,456,345.5a14.9,14.9,0,0,0-1.06,5.44c-.07,1.69,0,3.26.09,4.82l.06,1.15v.92a3.14,3.14,0,0,1,0,.83,2.35,2.35,0,0,1-.14.71,2.08,2.08,0,0,1-1.41,1.57,8.56,8.56,0,0,1-3.5.33,53.92,53.92,0,0,1-8.55-1.58,32.17,32.17,0,0,0-9.77-.58c-3.13.22-6.09.64-8.66.31a9,9,0,0,1-3.51-1.13,4.58,4.58,0,0,1-2.05-2.27,14,14,0,0,1-.12-7.7,29.86,29.86,0,0,1,2.93-8,25.18,25.18,0,0,1,2.19-3.55,12,12,0,0,1,2.72-2.6,12.79,12.79,0,0,1,7.19-2.09,30.58,30.58,0,0,1,4.12.21c.71.1,1.42.2,2.14.32a25.44,25.44,0,0,0,2.67.25,22.15,22.15,0,0,0,5.44-.5,25.23,25.23,0,0,0,2.67-.75c.45-.15.89-.33,1.34-.52l.66-.31a3.6,3.6,0,0,0,1.09-.05,3.46,3.46,0,0,1,.8-.06l.91,0A12.08,12.08,0,0,1,455.93,330.77Z" transform="translate(0 0)"/><path class="cls-4" d="M384.68,368.07s-9.17.5-10.86,5.85.33,10.44,8.15,9.77,11.88-7,10.86-9.77S388.84,367.33,384.68,368.07Z" transform="translate(0 0)"/><path class="cls-4" d="M435,423.46c5.43-2,8.15-4.27,11.88-6.55s4.62-4.43,2-5.34c0,0-8.49-4.07-14.26,1S429.52,425.49,435,423.46Z" transform="translate(0 0)"/><path class="cls-4" d="M456.92,431.77l0,.05a3.48,3.48,0,0,1,.46-.48l.12-.1,0,.05-.08.09-.34.36-.31.34h0l-.1.12.05-.07,0,0-.33.35L455,433.85l-2.63,2.8-5.2,5.62c-3.43,3.78-6.86,7.56-10.11,11.57a77.53,77.53,0,0,0-4.7,6.3,21.18,21.18,0,0,0-3.5,8,10.86,10.86,0,0,0,.26,5,9.54,9.54,0,0,0,2.87,4.36,14.3,14.3,0,0,0,8.53,3.13,21.78,21.78,0,0,0,8.46-1.12,28.24,28.24,0,0,0,7.23-4.11,54.45,54.45,0,0,0,11-11.59,36.17,36.17,0,0,0,4.16-7.37,17.12,17.12,0,0,0,.73-2.35,10.78,10.78,0,0,0,.22-1.38l.07-.73v-.59a32.34,32.34,0,0,0-.26-4.38,57.45,57.45,0,0,0-1.67-8.19,34.1,34.1,0,0,0-1.52-4.27,11.83,11.83,0,0,0-1.65-2.74,8.17,8.17,0,0,0-1-1.05,6.78,6.78,0,0,0-2.56-1.34,7.64,7.64,0,0,0-1.21-.2,6.54,6.54,0,0,0-1.46.06,6.47,6.47,0,0,0-2.65,1.05c-.17.12-.34.24-.5.37s-.26.22-.38.34A6.63,6.63,0,0,0,456.92,431.77Zm2.37,12.66,1.69-1.19a34,34,0,0,1,2.07,5.55,23,23,0,0,1,.67,3.06l0,.35,0,.2a3.08,3.08,0,0,1,0,.48,9.51,9.51,0,0,1-.13,1.3,19.65,19.65,0,0,1-.84,3c-.41,1-.88,2.07-1.4,3.1a37.17,37.17,0,0,1-8.61,10.91,19.87,19.87,0,0,1-5.64,3.47,15.6,15.6,0,0,1-6.31.79,8.68,8.68,0,0,1-5.28-2,4.1,4.1,0,0,1-1-4.25,14.17,14.17,0,0,1,3-5.35c1.43-1.82,3.12-3.57,4.78-5.31s3.51-3.36,5.35-5,3.71-3.21,5.65-4.73S457.28,445.86,459.29,444.43Z" transform="translate(0 0)"/><path class="cls-4" d="M456.88,431.82l0,0c-.06.08-.12.15-.17.23h0Z" transform="translate(0 0)"/><path class="cls-4" d="M515.1,469c8.83-5.09,1-12.9-8.83-13.92s-7.47-3.74-11.55-2c0,0-1.36,2.22,3.74,7.73S506.27,474.05,515.1,469Z" transform="translate(0 0)"/><path class="cls-4" d="M517,487.52l-1.17.07c-.38,0-.73.15-1.11.22s-.74.16-1.08.29l-1,.39A20.49,20.49,0,0,0,506,493.2a28.63,28.63,0,0,0-4.59,6.26c-.67,1.1-1.17,2.27-1.73,3.43a37.52,37.52,0,0,0-1.34,3.58l-.57,1.82-.44,1.86c-.33,1.24-.48,2.5-.69,3.76s-.23,2.6-.28,3.93a24,24,0,0,0,.34,4.16,15.06,15.06,0,0,0,4.2,8.34,13.08,13.08,0,0,0,4.3,2.65,13.23,13.23,0,0,0,2.38.62c.41,0,.81.12,1.24.14l.64,0h.48a9.19,9.19,0,0,0,2.62-.17,10.42,10.42,0,0,0,2.58-1,36.12,36.12,0,0,0,3.35-2.11l5.73-4a34.66,34.66,0,0,0,6.06-4.81,15.6,15.6,0,0,0,4.1-7.66,11.61,11.61,0,0,0,0-4.66,9.14,9.14,0,0,0-2.33-4.54,6.53,6.53,0,0,0-1.24-1c-.33-.19-.67-.37-1-.53-.56-.26-1.15-.48-1.56-.63a.41.41,0,0,0,0-.11l.08-.71.13-1a19,19,0,0,0,.15-2,12.6,12.6,0,0,0-.64-4.37,9.64,9.64,0,0,0-2.64-4,11.66,11.66,0,0,0-3.89-2.27,18.35,18.35,0,0,0-2-.58A10.17,10.17,0,0,0,517,487.52Zm2.62,5.8a4.82,4.82,0,0,1,3.34,3,7.35,7.35,0,0,1,.31,2.53c0,.47-.06,1-.12,1.47l-.27,1.8a6.34,6.34,0,0,0,.24,3,4.27,4.27,0,0,0,1.39,1.89,5.12,5.12,0,0,0,.78.51c.2.09.45.22.59.27.69.29,1.08.44,1.46.64.19.1.36.21.52.31l.11.14a4,4,0,0,1,.62,1.7,5.67,5.67,0,0,1-.16,2.3,9,9,0,0,1-2.82,4.28,29.5,29.5,0,0,1-5.22,3.43l-6,3.63a28.16,28.16,0,0,1-2.67,1.46,2,2,0,0,1-.7.22l-.78-.1h-.31c-.1,0-.05,0-.09,0h-.08l-.23,0-.5-.08c-.34-.08-.67-.2-1-.29a5.77,5.77,0,0,1-3.8-4.82,17.19,17.19,0,0,1-.4-2.79c0-1,0-2,.05-3.07s.14-2.12.34-3.16l.25-1.58.36-1.55c.21-1,.6-2,.89-3a28.72,28.72,0,0,1,1.24-2.92,22.85,22.85,0,0,1,3.36-5.22,13.73,13.73,0,0,1,4.5-3.61l.61-.27c.2-.08.4-.1.6-.17s.4-.13.6-.15l.58-.05a4.47,4.47,0,0,1,1.1.05A11.53,11.53,0,0,1,519.59,493.32Z" transform="translate(0 0)"/><path class="cls-4" d="M587.58,375.92a25.82,25.82,0,0,0-4.4-6.42,46.89,46.89,0,0,0-5.61-5.08,31.72,31.72,0,0,1-5-4.94,28.45,28.45,0,0,1-2-2.85l-.92-1.54a8.38,8.38,0,0,0-1.4-1.89,3.32,3.32,0,0,0-2.06-.87,3.54,3.54,0,0,0-1.07.1,5.48,5.48,0,0,0-.75.25,12.92,12.92,0,0,0-2,1.09c-.56.37-1.08.72-1.59,1.08l-.78.55-.92.69c-.12.13-.27.29-.36.41l-.16.19-.32.4-.61.77c-.39.53-.79,1.05-1.14,1.6a36.48,36.48,0,0,0-2.08,3.33,34.37,34.37,0,0,0-3.14,7.45,22.48,22.48,0,0,0-.64,8.58,20.1,20.1,0,0,0,3.17,8.36,30.48,30.48,0,0,0,5.51,6.15,31.52,31.52,0,0,0,6.85,4.55,27.29,27.29,0,0,0,8,2.56,15.67,15.67,0,0,0,9.09-1.07,9.3,9.3,0,0,0,3.91-3.66c.18-.38.43-.86.53-1.16l.34-.93c.24-.61.4-1.27.6-1.9a23.69,23.69,0,0,0,1-8A21.13,21.13,0,0,0,587.58,375.92Zm-21.8-19.52c-.1,0-.18-.11-.15-.11A.4.4,0,0,1,565.78,356.4Zm19.45,27.32a19.39,19.39,0,0,1-1.57,6.29c-.24.51-.43,1-.7,1.51l-.38.75a3.7,3.7,0,0,1-.3.46,3.29,3.29,0,0,1-1.56,1,10.16,10.16,0,0,1-5.27-.17,23.24,23.24,0,0,1-5.7-2.43,29.56,29.56,0,0,1-9.23-8.57,15.75,15.75,0,0,1-2.29-5.06,18.63,18.63,0,0,1-.31-5.92,26.15,26.15,0,0,1,1.65-6.31,25.79,25.79,0,0,1,1.42-3.07c.25-.51.55-1,.83-1.48l.44-.71.23-.34.11-.17-.08.05,1.16-1c.44-.4.89-.79,1.32-1.14a9.84,9.84,0,0,1,1-.76c.16.18.34.39.51.61l1.15,1.46c.81,1,1.65,2,2.55,2.87a60.49,60.49,0,0,0,5.64,5c.92.79,1.82,1.51,2.67,2.33a31.63,31.63,0,0,1,2.35,2.58A17.19,17.19,0,0,1,585.23,383.72Z" transform="translate(0 0)"/><path class="cls-4" d="M587.41,326.76c-3.52,1.29-11.19,5-4.4,10.44s21.06,8.83,15.62,0S599.28,322.44,587.41,326.76Z" transform="translate(0 0)"/><path class="cls-4" d="M614.93,394.25s-3.39,6.42,0,15.78,12.23,1.2,8.15-5.59A42.85,42.85,0,0,0,614.93,394.25Z" transform="translate(0 0)"/><path class="cls-4" d="M644.7,349l-1.11-2.06-1.09-1.85-2.23-3.71a72.59,72.59,0,0,0-5.09-7.33,33,33,0,0,0-3.25-3.51,15.49,15.49,0,0,0-4.62-3.07,9.45,9.45,0,0,0-3.42-.74,8.41,8.41,0,0,0-3.78.78,10.41,10.41,0,0,0-2.85,2c-.37.37-.69.74-1,1.13a14.6,14.6,0,0,0-1.23,1.86c-.07.23-.13.46-.18.7l-.06.35v2.16l0,2.28c0,1.51.12,3,.21,4.5a77.69,77.69,0,0,0,1.16,8.87,53.62,53.62,0,0,0,2.36,8.66c.46,1.44,1.13,2.8,1.72,4.2s1.43,2.77,2.13,3.92c2.85,4.86,5.59,9.82,8.82,14.69.82,1.22,1.67,2.43,2.63,3.63a18.32,18.32,0,0,0,3.59,3.55,6.52,6.52,0,0,0,3.49,1.29,4.71,4.71,0,0,0,2.44-.53,4.08,4.08,0,0,0,1-.64,4.94,4.94,0,0,0,.73-.7,9.46,9.46,0,0,0,1.57-2.68c.14-.4.3-.83.42-1.21l.32-1.1a54.27,54.27,0,0,0,1.84-17.82A46.41,46.41,0,0,0,644.7,349Zm-3.08,33.83-.26.94-.26.79a6.81,6.81,0,0,1-.34.71l-.11-.06a13,13,0,0,1-2.4-2.41c-.82-1-1.61-2.09-2.37-3.21-3.06-4.52-5.85-9.45-8.76-14.31-.78-1.26-1.29-2.34-2-3.51a38.7,38.7,0,0,1-1.51-3.64,36.23,36.23,0,0,1-1.84-7.74,40.35,40.35,0,0,1-.3-8c.08-1.34.22-2.67.43-4,.1-.66.23-1.31.37-2,.06-.32.14-.63.22-.94l.13-.45.06-.22,0,0,0,.23a2.16,2.16,0,0,1-.14.43c0,.07,0,.13,0,.14l.36-.46a3.28,3.28,0,0,1,.57-.5.61.61,0,0,1,.32-.14,1.38,1.38,0,0,1,.69.12,8,8,0,0,1,2.45,1.53,25.57,25.57,0,0,1,2.61,2.6,64.25,64.25,0,0,1,4.85,6.4c.77,1.13,1.54,2.29,2.27,3.47l1.11,1.78.94,1.65a40.08,40.08,0,0,1,4.17,15A45.23,45.23,0,0,1,641.62,382.83Z" transform="translate(0 0)"/><path class="cls-4" d="M519,265.89s-6.57,9.51,2.94,13.58,13.3-3.39,9.71-8.15S525.51,262.49,519,265.89Z" transform="translate(0 0)"/><path class="cls-4" d="M504.23,280.65c-2-.5-8.31-6.32-9.67,0,0,0-5.5,11.05,5.48,13.77S506.27,281.14,504.23,280.65Z" transform="translate(0 0)"/><path class="cls-4" d="M450.35,501.56c-2.49-10.19-14.74-21.13-12.88-11.39,0,0,2.32,29.73,20.28,24.29S452.85,511.75,450.35,501.56Z" transform="translate(0 0)"/><path class="cls-6" d="M376.83,346s9.55-1.54,12.58-7.66c0,0,2,13.46-12.58,18s-13.58,28.46,0,34.11c0,0-15.55,30.55,0,40.17a21.26,21.26,0,0,1-1.53,1.63,14.6,14.6,0,0,1-1.77,1.41l-2.23,1.49a22.8,22.8,0,0,0-2.71,2,27.6,27.6,0,0,0-7.52,10l-.27-.36a22.91,22.91,0,0,1-1.82-2.37,9.61,9.61,0,0,1-.57-.85l-.55-1.16a20.5,20.5,0,0,1-1-2.53A70.9,70.9,0,0,1,354,428.26a131.06,131.06,0,0,1-1.59-24.58,101.75,101.75,0,0,1,1.14-12.16c.26-2,.72-3.94,1.14-5.88.18-1,.53-1.89.79-2.84s.53-1.84.91-2.87l4.22-12.18a32.4,32.4,0,0,0,1-3.67c.23-1.24.4-2.23.57-3.29q.54-3.09,1.14-6.2l.62-3.11.31-1.55.35-1.42a44,44,0,0,1,1.66-5.52,38.46,38.46,0,0,1,5.62-10c2.37-3.13,5.23-6.09,8.19-9.44A43.2,43.2,0,0,0,388,311.65l1.2-2.74c.37-.83.87-1.65,1.29-2.48L392,304l1.44-1.95.29-.38a55.86,55.86,0,0,1,8.3-8.48s-8.48,13.2-9,26.11S378.87,334.62,376.83,346Z" transform="translate(0 0)"/><path class="cls-6" d="M572.37,524.59l-.09.11c-.07.08-.1.17-.18.26a8.2,8.2,0,0,1-.66.65,14.06,14.06,0,0,1-2,1.4,31.6,31.6,0,0,1-5,2.46,73,73,0,0,1-11.55,3.37l-12.55,2.63c-8.39,1.8-16.77,3.66-25.14,5.67q-6.3,1.5-12.55,3.14L496.44,546l-2.74.61-2.87.38a71.29,71.29,0,0,1-12,.18c-2-.09-4.06-.39-6.1-.56s-4.06-.55-6.08-.94a141,141,0,0,1-23.89-6.51,131,131,0,0,1-22.31-10.58,147.87,147.87,0,0,1-20.13-14.44,102.61,102.61,0,0,1-8.8-8.51,84.9,84.9,0,0,1-7.62-9.47,79.86,79.86,0,0,1-6.24-10.39c-.95-1.78-1.76-3.64-2.59-5.49l-1.15-2.81-1.13-2.93c-1.5-3.94-2.87-7.87-4.23-11.93q-.76-2.28-1.65-4.73c.09-.66.2-1.34.35-2a24.67,24.67,0,0,1,1.47-4.6,20.17,20.17,0,0,1,5.5-7.51,19,19,0,0,1,1.89-1.42l2.48-1.77a22.66,22.66,0,0,0,2.61-2.23,26.22,26.22,0,0,0,2.31-2.62,24.13,24.13,0,0,0,3.23-6.06,44,44,0,0,0,1.65-6.08c.8-3.89,1.24-7.34,2.68-9.84a6.2,6.2,0,0,1,.58-.89l.29-.45c.11-.15.3-.35.44-.54l1.82-2.22,1.82-2.25h0l1.71-2.12a78.39,78.39,0,0,1,7.42-8.17,21.39,21.39,0,0,1,9.45-5.54s-16.31,18.35-16.31,32.26-3.61,20.88-10,31.2,2.72,23,14,32.51,23.1,15.86,34.86,27.63,23.22,18.1,35.16,12.67,19.2,6.83,26,6c2.09-.25,5.66,0,9.93-.09h0c1.48,0,3-.1,4.66-.23,8.83-.72,19.16-3.53,25.67-13.83C549.82,502,552,521,557.81,521c3.4,0,7-5.77,9.44-10.54a37.76,37.76,0,0,0,1.21,5.58,25.1,25.1,0,0,0,1.41,3.6h0c.55,1.17,1.21,2.24,1.67,3.07A7.16,7.16,0,0,1,572.37,524.59Z" transform="translate(0 0)"/><path class="cls-6" d="M635.78,398.57c-1.18-.45-2.39-.87-3.59-1.25A9.21,9.21,0,0,1,635.78,398.57Z" transform="translate(0 0)"/><path class="cls-6" d="M651.31,429.47c0,.76,0,1.52-.09,2.26A130.54,130.54,0,0,1,646,445.49a60.14,60.14,0,0,1-5.35,9.6l-.76,1c-.26.33-.53.62-.79.93a7.92,7.92,0,0,1-.77.83c-.25.24-.48.49-.9.84l-4.48,3.88c-3,2.64-6,5.22-9,8.34a31.85,31.85,0,0,0-4.22,5.42,24.54,24.54,0,0,0-1.65,3.28c-.2.57-.4,1.14-.59,1.71L617,483a6.77,6.77,0,0,1-1.72,3.19,24,24,0,0,1-3.94,2.92c-3.23,2-6.82,4.19-10.13,6.59l-1.25.89-1.12.78c-.36.24-.73.51-1.1.74l-1.08.66a12.43,12.43,0,0,1-3.94,1.58c-.21,0-.51.09-.6,0h-.22a.17.17,0,0,0-.11,0,.86.86,0,0,1-.44-.36,8.08,8.08,0,0,1-1.17-3.47c-.29-1.86-.38-3.51-.65-5.83a17.83,17.83,0,0,0-.91-3.75,27.25,27.25,0,0,0-1.4-3.18l-.74-1.41c-.2-.39-.4-.76-.6-1.16-.36-.77-.69-1.54-1-2.36s-.61-1.78-.88-2.73c-.21-.79-.41-1.6-.61-2.44-.85-3.67-1.61-7.69-2.46-11.54-.41-1.82-.72-3.69-1.13-5.76,0-.23-.1-.46-.15-.69a112.68,112.68,0,0,1,14.52-3.18c21.05-3.43,39.26-19.23,46.18-28.66,5.21-7.09.3-17.37-4.21-22.86a6.12,6.12,0,0,1,.48.41c.66.71,1.37,1.37,2,2.06s1.41,1.28,2,2,1.25,1.43,1.88,2.12a26.74,26.74,0,0,1,1.72,2.2,37.33,37.33,0,0,1,3,4.59,33.6,33.6,0,0,1,3.53,10A32.9,32.9,0,0,1,651.31,429.47Z" transform="translate(0 0)"/><path class="cls-7" d="M571.54,522.73a7.16,7.16,0,0,1,.83,1.86l-.09.11c-.07.08-.1.17-.18.26a8.2,8.2,0,0,1-.66.65,14.06,14.06,0,0,1-2,1.4,31.6,31.6,0,0,1-5,2.46,73,73,0,0,1-11.55,3.37l-12.55,2.63c-8.39,1.8-16.77,3.66-25.14,5.67q-6.3,1.5-12.55,3.14L496.44,546l-2.74.61-2.87.38a71.29,71.29,0,0,1-12,.18c-2-.09-4.06-.39-6.1-.56s-4.06-.55-6.08-.94a141,141,0,0,1-23.89-6.51,131,131,0,0,1-22.31-10.58,147.87,147.87,0,0,1-20.13-14.44,102.61,102.61,0,0,1-8.8-8.51,84.9,84.9,0,0,1-7.62-9.47,79.86,79.86,0,0,1-6.24-10.39c-.95-1.78-1.76-3.64-2.59-5.49l-1.15-2.81-1.13-2.93c-1.5-3.94-2.87-7.87-4.23-11.93q-.76-2.28-1.65-4.73c.09-.66.2-1.34.35-2a24.67,24.67,0,0,1,1.47-4.6,20.17,20.17,0,0,1,5.5-7.51,19,19,0,0,1,1.89-1.42l2.48-1.77a22.66,22.66,0,0,0,2.61-2.23,26.22,26.22,0,0,0,2.31-2.62,24.13,24.13,0,0,0,3.23-6.06,44,44,0,0,0,1.65-6.08c.8-3.89,1.24-7.34,2.68-9.84a6.2,6.2,0,0,1,.58-.89l.29-.45c.11-.15.3-.35.44-.54l1.82-2.22,1.82-2.25h0s-6.33,16.07-6.33,23.88S378.24,450.55,377.2,455s3,26.94,12.53,37.87,25,29.17,39,33c0,0-4.58-2.54-9.1-10.69,0,0,3.35-.91,11,5.88s24.2,19.46,37,16.75,14.11-2,22.71.38,40.3,2.33,55.24-9.89a17.17,17.17,0,0,1,12.32-.9c3,1,7.76-3,12.06-7.69C570.42,520.83,571.08,521.9,571.54,522.73Z" transform="translate(0 0)"/><path class="cls-7" d="M650.8,424.34a32.9,32.9,0,0,1,.51,5.13c0,.76,0,1.52-.09,2.26A130.54,130.54,0,0,1,646,445.49a60.14,60.14,0,0,1-5.35,9.6l-.76,1c-.26.33-.53.62-.79.93a7.92,7.92,0,0,1-.77.83c-.25.24-.48.49-.9.84l-4.48,3.88c-3,2.64-6,5.22-9,8.34a31.85,31.85,0,0,0-4.22,5.42,24.54,24.54,0,0,0-1.65,3.28c-.2.57-.4,1.14-.59,1.71L617,483a6.77,6.77,0,0,1-1.72,3.19,24,24,0,0,1-3.94,2.92c-3.23,2-6.82,4.19-10.13,6.59l-1.25.89-1.12.78c-.36.24-.73.51-1.1.74l-1.08.66a12.43,12.43,0,0,1-3.94,1.58c-.21,0-.51.09-.6,0h-.22a.17.17,0,0,0-.11,0,.86.86,0,0,1-.44-.36,8.08,8.08,0,0,1-1.17-3.47c-.29-1.86-.38-3.51-.65-5.83a17.83,17.83,0,0,0-.91-3.75,27.25,27.25,0,0,0-1.4-3.18l-.74-1.41c-.2-.39-.4-.76-.6-1.16-.36-.77-.69-1.54-1-2.36s-.61-1.78-.88-2.73A46.47,46.47,0,0,1,602.54,464c15.39-5.43,44-16.59,44.73-49.61A33.6,33.6,0,0,1,650.8,424.34Z" transform="translate(0 0)"/><path class="cls-7" d="M657.93,401.22c-.62,5-1.48,9.89-2.52,14.78a39,39,0,0,0-2.73-4.43c2.28-9.78,6.07-31.31,1-50.26-6.8-25.48-18.18-31.51-17.92-38.47s-7.2-21-14.33-25.51c-4.54-2.86-10.3-11.38-14.21-21.73.83.77,1.64,1.53,2.46,2.32a173.26,173.26,0,0,1,15.66,16.89,177.2,177.2,0,0,1,23.76,39.37c1.49,3.56,3.11,7.14,4.32,10.63.62,1.76,1.17,3.56,1.7,5.36s1,3.61,1.35,5.48a116.78,116.78,0,0,1,2.64,22.61A152.32,152.32,0,0,1,657.93,401.22Z" transform="translate(0 0)"/><path class="cls-7" d="M393.41,302.05c-1.94,4.59-3.2,9.07-3.34,12.15-.36,7.77-6.11,12.91-11.54,16.51S365.6,345,366.93,352.32s-2.67,20.63-5.72,26.4-2.72,19.22-2.72,19.22l8.44-2.24c-11.94,21.4,4.4,39.39,4.4,39.39a22.8,22.8,0,0,0-2.71,2,27.6,27.6,0,0,0-7.52,10l-.27-.36a22.91,22.91,0,0,1-1.82-2.37,9.61,9.61,0,0,1-.57-.85l-.55-1.16a20.5,20.5,0,0,1-1-2.53A70.9,70.9,0,0,1,354,428.26a131.06,131.06,0,0,1-1.59-24.58,101.75,101.75,0,0,1,1.14-12.16c.26-2,.72-3.94,1.14-5.88.18-1,.53-1.89.79-2.84s.53-1.84.91-2.87l4.22-12.18a32.4,32.4,0,0,0,1-3.67c.23-1.24.4-2.23.57-3.29q.54-3.09,1.14-6.2l.62-3.11.31-1.55.35-1.42a44,44,0,0,1,1.66-5.52,38.46,38.46,0,0,1,5.62-10c2.37-3.13,5.23-6.09,8.19-9.44A43.2,43.2,0,0,0,388,311.65l1.2-2.74c.37-.83.87-1.65,1.29-2.48L392,304Z" transform="translate(0 0)"/><path class="cls-7" d="M463.84,452.87a8.16,8.16,0,0,1-.12,1.31,19.65,19.65,0,0,1-.84,3c-.41,1-.88,2.08-1.4,3.1a37.34,37.34,0,0,1-8.61,10.91,19.52,19.52,0,0,1-5.64,3.47,15.57,15.57,0,0,1-6.3.79,8.75,8.75,0,0,1-5.29-2,4.11,4.11,0,0,1-1-4.25,14.07,14.07,0,0,1,3-5.33c.74,2,2.94,4.09,9.51.7,9.5-4.91,13.16-8.15,14.79-19.21a31.87,31.87,0,0,1,1.15,3.37,25.73,25.73,0,0,1,.66,3l.06.36,0,.2A2.17,2.17,0,0,1,463.84,452.87Z" transform="translate(0 0)"/><path class="cls-7" d="M528.39,512.79a8.86,8.86,0,0,1-2.81,4.28,29.13,29.13,0,0,1-5.22,3.44l-6,3.62a22.92,22.92,0,0,1-2.67,1.47,2.28,2.28,0,0,1-.7.22l-.78-.1h-.32c-.09,0,0,0-.08,0h-.08l-.23,0c-.16,0-.34-.07-.5-.08-.34-.08-.67-.19-1-.29a7.72,7.72,0,0,1-1.67-.93,6.75,6.75,0,0,1-1.9-3.09c5.23.15,10.9-1.88,12.34-10.65,0,0-1.77-6.18,2.21-10.26a12.7,12.7,0,0,0,2.92-5.76,4,4,0,0,1,1.06,1.65,7.41,7.41,0,0,1,.31,2.54,12.65,12.65,0,0,1-.12,1.47l-.27,1.79a6.42,6.42,0,0,0,.24,3,4.47,4.47,0,0,0,1.39,1.89,5.32,5.32,0,0,0,.79.5c.19.09.44.22.58.27.69.29,1.09.43,1.47.64a5.33,5.33,0,0,1,.51.31l.11.14a3.79,3.79,0,0,1,.61,1.69A5.48,5.48,0,0,1,528.39,512.79Z" transform="translate(0 0)"/><path class="cls-7" d="M460.91,337.21c-.06.26-.12.53-.2.78a3.76,3.76,0,0,1-.29.68,2.49,2.49,0,0,1-.35.62l-.18.3c-.08.12-.24.3-.35.45l-.74.94A19.52,19.52,0,0,0,456,345.5a15.08,15.08,0,0,0-1.06,5.45c-.07,1.68,0,3.26.08,4.8l.07,1.16,0,.92a3.6,3.6,0,0,1-.06.83,2.73,2.73,0,0,1-.13.71,2.15,2.15,0,0,1-1.42,1.57,8.9,8.9,0,0,1-3.5.33,53.19,53.19,0,0,1-8.56-1.59,32.75,32.75,0,0,0-9.77-.57c-3.12.22-6.08.64-8.65.31a8.89,8.89,0,0,1-3.52-1.13,4.57,4.57,0,0,1-2.05-2.28,14.26,14.26,0,0,1-.11-7.7,29.9,29.9,0,0,1,2.92-8,25.83,25.83,0,0,1,2.2-3.54,9,9,0,0,1,.67-.81c-1.28,3.54-1.6,8.18,2.95,11.82,8.49,6.79,8.64-2,15.18,0s4.8-8,12-8.56A24.23,24.23,0,0,0,460.91,337.21Z" transform="translate(0 0)"/><path class="cls-7" d="M585.24,383.72a19.34,19.34,0,0,1-1.58,6.29c-.24.5-.43,1-.71,1.51l-.38.75a2.9,2.9,0,0,1-.29.46,3.36,3.36,0,0,1-1.57,1,10.1,10.1,0,0,1-5.25-.18,22.62,22.62,0,0,1-5.71-2.43,29.3,29.3,0,0,1-9.22-8.57,15.25,15.25,0,0,1-2.3-5.06,18.63,18.63,0,0,1-.31-5.92,25.33,25.33,0,0,1,1.26-5.21c1.61,6.18,4.77,14,10.86,17.37,9.49,5.24,13.25,4,13.31-8.57A16.07,16.07,0,0,1,585.24,383.72Z" transform="translate(0 0)"/><path class="cls-7" d="M641.62,382.83l-.26.95-.27.78c-.11.26-.23.52-.33.71,0,0-.06,0-.1-.07a12.61,12.61,0,0,1-2.41-2.4c-.81-1-1.6-2.09-2.38-3.21-3-4.52-5.84-9.45-8.74-14.31-.79-1.25-1.31-2.34-2-3.51-.5-1.21-1.11-2.38-1.51-3.64a36.84,36.84,0,0,1-1.84-7.74,38.89,38.89,0,0,1-.29-8c.07-1.33.22-2.66.42-4A35.22,35.22,0,0,0,628.8,359c7.24,9.43,7,13,7,13s7.05,3,3-20a39.75,39.75,0,0,1,4.16,15A45,45,0,0,1,641.62,382.83Z" transform="translate(0 0)"/><path class="cls-8" d="M455.94,330.76s-3.72,5.52-9.5,4.71-3.73,3.18-12,3.33c-5.48.1-6.21-3.58-6.08-6.1a14.87,14.87,0,0,1,4-.58,29.19,29.19,0,0,1,4.13.2l2.13.32a25.71,25.71,0,0,0,2.67.24,22.18,22.18,0,0,0,5.44-.49,23.69,23.69,0,0,0,2.67-.76,12.32,12.32,0,0,0,1.34-.52l.66-.29a4.49,4.49,0,0,0,1.1-.06,4.78,4.78,0,0,1,.79-.07l.91,0C454.82,330.61,455.35,330.75,455.94,330.76Z" transform="translate(0 0)"/><path class="cls-8" d="M456.32,446.63c-1.46,8.81-8.23,10.73-12.89,11,1.4-1.36,2.86-2.66,4.33-4,1.83-1.63,3.71-3.22,5.65-4.73C454.38,448.15,455.34,447.37,456.32,446.63Z" transform="translate(0 0)"/><path class="cls-8" d="M517.1,492.9c-.54,2.3-1.67,5-4,6.38-4.52,2.71-.68,3.39-2.72,10.94-1.15,4.27-4.18,5.27-6.6,5.34,0-.3,0-.61,0-.92.1-1.06.14-2.13.34-3.17l.25-1.57.36-1.56c.21-1,.6-2,.89-3a30,30,0,0,1,1.23-2.92,22.94,22.94,0,0,1,3.37-5.21,13.53,13.53,0,0,1,4.5-3.62l.61-.27a4.87,4.87,0,0,1,.6-.16,3.47,3.47,0,0,1,.59-.16Z" transform="translate(0 0)"/><path class="cls-8" d="M572.37,377.7c-6.61-2.71-8.69-19.17-8.69-19.17.45-.4.88-.79,1.32-1.13a8.28,8.28,0,0,1,1-.76,6.2,6.2,0,0,1,.51.59l1.15,1.47c.8,1,1.66,2,2.54,2.87a60.44,60.44,0,0,0,5.65,5c.44.37.86.72,1.26,1.07C578.87,374.43,576.57,379.43,572.37,377.7Z" transform="translate(0 0)"/><path class="cls-8" d="M635.78,363.21c0-.15,0-5.95-6.3-10.89-4.58-3.62-4.17-12.39-3.6-17a10.47,10.47,0,0,1,1.08.81,26.9,26.9,0,0,1,2.63,2.61,65.81,65.81,0,0,1,4.85,6.4c.77,1.14,1.53,2.3,2.26,3.48l.79,1.26A39.88,39.88,0,0,1,635.78,363.21Z" transform="translate(0 0)"/><path class="cls-9" d="M544.58,372.27c-.34-1,2.33-20.75,16.28-23.62,0,0-10.22-1.34-16.31,3.67S544.58,372.27,544.58,372.27Z" transform="translate(0 0)"/><path class="cls-9" d="M467.54,469.41s20.12-14.05,4.89-43.94c0,0,16,12.31,13.74,27S467.54,469.41,467.54,469.41Z" transform="translate(0 0)"/><path class="cls-9" d="M422.41,372.27s15.95-7,29.67,0,20.35-2.12,20.35-2.12-3.75,12.76-20.58,10.05S447.38,370.23,422.41,372.27Z" transform="translate(0 0)"/><path class="cls-9" d="M515.45,281.23s18.7,9,26.41-6.21c0,0,1.81,16.74-10.19,18.17S515.45,281.23,515.45,281.23Z" transform="translate(0 0)"/><path class="cls-9" d="M609.33,348.49s-1.9,21.39,14.81,32.09C624.14,380.58,593.93,376.1,609.33,348.49Z" transform="translate(0 0)"/><path class="cls-4" d="M696.35,544.09S707.44,466.8,746,476.35,732.39,533.73,696.35,544.09Z" transform="translate(0 0)"/><path class="cls-4" d="M744.67,537.83s25.57-42,45.53-26.91S768.1,540.77,744.67,537.83Z" transform="translate(0 0)"/></svg>